<svg width="29" height="24" viewBox="0 0 29 24" fill="none" xmlns="http://www.w3.org/2000/svg">
<path d="M25.232 0H2.80356C1.2574 0 0 1.15193 0 2.5684V20.5472C0 21.9637 1.2574 23.1156 2.80356 23.1156H25.232C26.7782 23.1156 28.0356 21.9637 28.0356 20.5472V2.5684C28.0356 1.15193 26.7782 0 25.232 0ZM8.80356 20.5472C5.48985 20.5472 2.80356 17.8609 2.80356 14.5472V11.1368C2.80356 7.82308 5.48985 5.1368 8.80356 5.1368H19.2331C22.5464 5.1368 25.2325 7.82242 25.2331 11.1357L25.2337 14.5461C25.2343 17.8602 22.5479 20.5472 19.2337 20.5472H8.80356Z" fill="#0094D9"/>
<path d="M11.3355 9.00599C10.8074 8.47375 9.94681 8.47375 9.41875 9.00599L7.86462 10.5724C6.4956 11.9523 6.4956 14.178 7.86462 15.5579L9.41875 17.1243C9.94681 17.6566 10.8074 17.6566 11.3355 17.1243V17.1243C11.8577 16.598 11.8577 15.749 11.3355 15.2227L10.7369 14.6193C9.88332 13.759 9.88332 12.3713 10.7369 11.511L11.3355 10.9077C11.8577 10.3813 11.8577 9.53233 11.3355 9.00599V9.00599ZM18.6169 9.006C18.0888 8.47375 17.2282 8.47375 16.7002 9.00599V9.00599C16.178 9.53233 16.178 10.3813 16.7002 10.9077L17.2988 11.511C18.1523 12.3713 18.1523 13.759 17.2988 14.6193L16.7002 15.2227C16.178 15.749 16.178 16.598 16.7002 17.1243V17.1243C17.2282 17.6566 18.0888 17.6566 18.6169 17.1243L20.171 15.5579C21.54 14.178 21.54 11.9523 20.171 10.5724L18.6169 9.006Z" fill="#0094D9"/>
</svg>
