<svg width="296" height="84" viewBox="0 0 296 84" fill="none" xmlns="http://www.w3.org/2000/svg">
<path d="M63.9151 33.5529C63.9151 33.5529 63.7234 32.2329 63.4751 31.1757C63.2676 31.1757 63.0539 31.1757 62.8464 31.1942C61.7787 31.2535 60.7161 31.3816 59.6654 31.5775C56.2411 32.5171 52.9872 33.9774 50.0216 35.9055C50.1568 35.8189 50.3014 35.7478 50.4365 35.6613C50.7226 36.5702 51.1029 37.8685 51.4801 39.4606C52.1046 42.0804 52.5301 44.7422 52.7532 47.4241C52.7825 47.7518 52.8077 48.0794 52.8286 48.4071C53.0407 51.8983 52.6981 55.4007 51.8133 58.7881C51.393 59.9632 50.8823 61.1052 50.2857 62.2041C49.927 62.861 49.5281 63.4959 49.0912 64.1053C45.6052 68.9588 40.7645 70.251 36.1281 68.6002C35.009 68.1426 31.4445 66.3311 30.6524 61.4899C30.4166 57.7401 32.1801 54.1571 32.5384 53.4523C32.5635 53.4028 32.6264 53.2699 32.6956 53.1432C28.3861 50.0178 25.249 46.7625 23.0675 43.5104C22.8946 43.9277 22.7312 44.3296 22.6526 44.5398V44.5552C20.5969 49.7148 21.3104 56.3799 21.5367 57.4186C22.2683 60.907 23.6818 64.2226 25.6985 67.1812C25.7174 67.209 25.7299 67.2307 25.7488 67.2647C26.086 67.7827 26.4588 68.2775 26.8647 68.7455C27.5913 69.6526 28.3789 70.5109 29.2222 71.3144C36.1092 78.4246 52.8569 78.842 60.5864 63.6725C62.3592 60.1916 63.6574 55.8914 64.2515 50.6546C64.5144 48.3184 64.6372 45.969 64.6193 43.6186C64.5913 40.2524 64.3562 36.8911 63.9151 33.5529Z" fill="#4CB249"/>
<path d="M59.5867 21.6418C55.6324 21.8737 51.1971 22.9186 46.2904 25.0424C44.1044 25.989 41.975 27.0573 39.9126 28.242C36.9605 29.9528 34.1159 31.8368 31.3941 33.8838C31.3941 33.8838 30.3285 34.7092 29.5081 35.448C30.1803 36.5206 30.9381 37.5388 31.7745 38.4931C34.2843 40.9129 37.1599 42.936 40.2992 44.4904L39.9849 44.3173C40.645 43.6186 41.5974 42.6479 42.8139 41.535C44.9804 39.5358 47.3078 37.7121 49.7732 36.0818L50.0184 35.9149C52.9839 33.9867 56.2378 32.5264 59.6621 31.5869C60.7128 31.3909 61.7754 31.2629 62.8432 31.2036C63.7985 31.1481 64.7566 31.1616 65.7099 31.2437C71.7294 31.7878 75.2876 35.2626 76.152 40.0357C76.3124 41.2166 76.4978 45.1612 72.6347 48.2557C69.4473 50.3331 65.405 50.6207 64.616 50.6547C64.5657 50.6547 64.4117 50.6547 64.2608 50.6763C63.6667 55.9131 62.3748 60.2133 60.5957 63.6942C61.0515 63.6324 61.4915 63.5705 61.7179 63.5334C67.2878 62.7049 72.8012 58.7634 73.6028 58.0493C76.309 55.681 78.521 52.8178 80.1158 49.619C80.1302 49.5909 80.1471 49.564 80.1661 49.5387C80.4524 48.992 80.7013 48.427 80.911 47.8477C81.347 46.7743 81.7093 45.6733 81.9955 44.5522C84.7994 35.1204 76.8059 20.6402 59.5867 21.6418Z" fill="#0094D9"/>
<path d="M52.8255 48.5339C52.8255 48.6513 52.8255 48.7657 52.8255 48.8832C51.8825 48.6699 50.5466 48.3453 48.9529 47.8692C46.3344 47.0907 43.7782 46.1225 41.3052 44.9726C41.0568 44.8582 40.8117 44.7407 40.5665 44.6201L40.403 44.5459C37.2228 42.9856 34.3113 40.9441 31.7746 38.4961C30.9382 37.5418 30.1804 36.5236 29.5082 35.451C29.1166 34.826 28.7629 34.1788 28.4489 33.5127C25.9154 28.1213 27.1916 23.3482 30.9636 20.2197C31.9223 19.4901 35.3046 17.3602 39.9567 19.1037C43.3766 20.7823 45.6493 24.0747 46.0799 24.7331C46.1113 24.7795 46.1962 24.9001 46.2748 25.0206C51.1815 22.9123 55.6168 21.8674 59.5711 21.6201C59.2882 21.2646 59.0147 20.9245 58.8701 20.7514H58.8544C55.3402 16.4235 49.1101 13.6938 48.0853 13.3692C44.6443 12.2482 41.0148 11.7947 37.398 12.0337H37.3006C36.6763 12.0641 36.0547 12.1343 35.4397 12.2439C34.2718 12.4077 33.1166 12.6494 31.982 12.9673C22.288 15.2889 13.537 29.3517 23.0267 43.5041C25.2082 46.7563 28.3452 50.0115 32.6547 53.137C34.5845 54.5258 36.5943 55.8036 38.6742 56.9641C41.6566 58.6257 44.7385 60.1081 47.903 61.4034C47.903 61.4034 49.1604 61.8949 50.2165 62.2164L50.2354 62.1855C50.8332 61.0857 51.345 59.9427 51.7662 58.7664C52.6408 55.4193 52.9844 51.9594 52.7846 48.5091L52.8255 48.5339Z" fill="#ED1C24"/>
<path d="M14.4234 50.9947C15.6577 49.8549 16.5208 48.3808 16.9034 46.7586C17.286 45.1365 17.171 43.4392 16.573 41.8814C15.975 40.3235 14.9207 38.975 13.5435 38.0062C12.1663 37.0375 10.528 36.4921 8.83572 36.439C7.1434 36.3858 5.47305 36.8273 4.03582 37.7077C2.5986 38.588 1.45902 39.8676 0.761143 41.3848C0.0632676 42.902 -0.161573 44.5886 0.115047 46.2314C0.391666 47.8743 1.15733 49.3996 2.31524 50.6145C3.08462 51.4218 4.00823 52.072 5.03327 52.5281C6.05832 52.9841 7.1647 53.2371 8.28918 53.2724C9.41365 53.3077 10.5342 53.1247 11.5867 52.7339C12.6393 52.3431 13.6032 51.7521 14.4234 50.9947Z" fill="#ED1C24"/>
<path d="M66.8917 83.6368C65.2721 83.1526 63.8348 82.2071 62.7613 80.9198C61.6879 79.6325 61.0265 78.0612 60.8607 76.4044C60.695 74.7476 61.0323 73.0796 61.8301 71.6112C62.6278 70.1429 63.8502 68.94 65.3428 68.1547C66.8354 67.3693 68.5313 67.0367 70.216 67.1989C71.9008 67.361 73.4988 68.0107 74.8083 69.0657C76.1178 70.1207 77.0799 71.5339 77.573 73.1265C78.0662 74.7191 78.0683 76.4197 77.5791 78.0135C77.2534 79.0732 76.7184 80.0594 76.0049 80.9157C75.2913 81.772 74.4132 82.4815 73.4206 83.0038C72.428 83.5261 71.3405 83.8508 70.2202 83.9594C69.1 84.068 67.9689 83.9584 66.8917 83.6368Z" fill="#4CB249"/>
<path d="M57.6819 10.3365C58.0671 11.9585 58.9328 13.4317 60.1695 14.5698C61.4061 15.7078 62.9581 16.4597 64.6293 16.7302C66.3004 17.0007 68.0156 16.7777 69.5578 16.0895C71.1001 15.4012 72.4002 14.2786 73.2937 12.8636C74.1872 11.4487 74.634 9.80485 74.5775 8.14014C74.521 6.47542 73.9639 4.86457 72.9764 3.51132C71.989 2.15807 70.6157 1.1232 69.0302 0.5376C67.4447 -0.0479969 65.7182 -0.15802 64.0691 0.221451C61.8589 0.730886 59.9447 2.08238 58.7471 3.979C57.5494 5.87563 57.1663 8.16225 57.6819 10.3365Z" fill="#0094D9"/>
<g style="mix-blend-mode:multiply">
<path d="M58.87 20.7701C58.1198 19.8602 57.283 19.0227 56.3711 18.2692C52.3703 18.8646 48.4684 19.9833 44.769 21.5955C44.6339 21.6543 44.4987 21.7192 44.3635 21.7872L44.0681 21.9232L43.8669 22.0129C44.6935 22.8501 45.4396 23.7608 46.0955 24.7333C46.1269 24.7797 46.2118 24.9002 46.2904 25.0208C51.1971 22.9124 55.6324 21.8676 59.5867 21.6202C59.3038 21.2647 59.0303 20.9247 58.8857 20.7516L58.87 20.7701Z" fill="#C6C7C9"/>
</g>
<g style="mix-blend-mode:multiply">
<path d="M30.4417 56.1636C30.5549 56.247 30.6775 56.3305 30.8001 56.4109L31.0767 56.5933L31.2559 56.7231C31.5809 55.6011 32.0091 54.5105 32.5352 53.4648C32.5603 53.4153 32.6232 53.2824 32.6924 53.1556C28.3829 50.0302 25.2458 46.775 23.0643 43.5228C22.8915 43.9402 22.728 44.3421 22.6494 44.5523V44.5677C22.2263 45.6619 21.9105 46.7933 21.7064 47.9466C24.2328 51.0562 27.1706 53.8197 30.4417 56.1636Z" fill="#C6C7C9"/>
</g>
<g style="mix-blend-mode:multiply">
<path d="M63.9151 33.5529C63.9151 33.5529 63.7233 32.2329 63.475 31.1757C63.2675 31.1757 63.0538 31.1757 62.8463 31.1942C61.7786 31.2535 60.716 31.3816 59.6653 31.5775C56.241 32.5171 52.9871 33.9774 50.0215 35.9055C50.1567 35.8189 50.3013 35.7478 50.4365 35.6613C50.7225 36.5702 51.1028 37.8685 51.48 39.4606L51.5272 39.4297C51.7189 39.2968 51.9107 39.1638 52.1119 39.034C54.6905 37.3598 57.513 36.0808 60.4826 35.2409C61.4948 35.0598 62.5191 34.9513 63.5473 34.9163H64.0754C64.0157 34.4618 63.9748 34.0167 63.9151 33.5529Z" fill="#C6C7C9"/>
</g>
<g style="mix-blend-mode:multiply">
<path d="M68.0391 51.0874C68.0391 50.9452 68.0643 50.7968 68.0737 50.6515L68.0989 50.3269L68.1209 50.1167C66.9719 50.4067 65.7971 50.5868 64.6129 50.6546C64.5626 50.6546 64.4086 50.6546 64.2577 50.6762C63.6636 55.9131 62.3717 60.2132 60.5926 63.6941C61.0484 63.6323 61.4884 63.5705 61.7148 63.5334C62.8927 63.3477 64.0503 63.0538 65.1724 62.6554C66.6485 58.9425 67.6127 55.0519 68.0391 51.0874Z" fill="#C6C7C9"/>
</g>
<g style="mix-blend-mode:multiply">
<path d="M42.8108 41.5229L42.7574 41.5012L42.1287 41.1921C39.3657 39.8316 36.8285 38.067 34.6035 35.9583C33.9379 35.1869 33.3307 34.3686 32.7867 33.5099L32.5227 33.0586C32.1486 33.3306 31.7777 33.5934 31.3974 33.8747C31.3974 33.8747 30.3318 34.7001 29.5114 35.439C30.1835 36.5115 30.9413 37.5297 31.7777 38.484C34.2862 40.9031 37.1609 42.9252 40.2993 44.4782L39.9849 44.3051C40.645 43.6157 41.5975 42.645 42.8108 41.5229Z" fill="#C6C7C9"/>
</g>
<g style="mix-blend-mode:multiply">
<path d="M52.8254 48.5339C52.8254 48.6513 52.8254 48.7657 52.8254 48.8832C51.8824 48.6699 50.5465 48.3453 48.9528 47.8692V47.9341C48.9748 48.1598 48.9968 48.3886 49.0125 48.6235C49.1967 51.6564 48.9105 54.6991 48.1638 57.6473C47.8169 58.6047 47.3965 59.5348 46.9065 60.4296L46.6425 60.8778C47.0668 61.0633 47.4849 61.2488 47.9218 61.4312C47.9218 61.4312 49.1791 61.9227 50.2353 62.2442L50.2541 62.2133C50.852 61.1135 51.3638 59.9705 51.7849 58.7942C52.6681 55.4474 53.0191 51.9863 52.8254 48.5339Z" fill="#C6C7C9"/>
</g>
<path d="M116.39 44.883H98.4509C99.2555 48.4845 102.066 50.7196 105.813 50.7196C107.057 50.733 108.292 50.4989 109.443 50.0314C110.593 49.5639 111.636 48.8727 112.508 47.9991L115.23 50.8494C112.91 53.3503 109.519 54.8002 105.413 54.8002C98.0957 54.8002 93.2769 50.0178 93.2769 42.9941C93.2769 35.9705 98.2308 31.1448 105.278 31.1046C113.624 31.1046 117.012 36.4558 116.39 44.883ZM111.929 41.1949C111.75 37.4234 109.207 35.142 105.328 35.142C101.578 35.142 98.9003 37.4667 98.366 41.1949H111.929Z" fill="black"/>
<path d="M135.979 28.3968C129.733 28.3968 124.824 33.1359 124.824 39.1888C124.824 45.2418 129.733 50.0304 135.979 50.0304C139.104 50.0304 142.313 48.6238 144.68 46.3856L147.801 49.8109C144.636 52.8807 140.128 54.8561 135.709 54.8561C126.562 54.8561 119.467 48.055 119.467 39.2352C119.467 30.502 126.653 23.7782 135.888 23.7782C140.317 23.8006 144.567 25.4988 147.757 28.5204L144.68 32.295C142.404 29.8744 139.148 28.3968 135.979 28.3968Z" fill="black"/>
<path d="M174.708 42.9078C174.708 49.9717 169.679 54.8004 162.352 54.8004C155.025 54.8004 149.945 49.9717 149.945 42.9078C149.945 35.8439 154.99 31.1048 162.352 31.1048C169.713 31.1048 174.708 35.8841 174.708 42.9078ZM155.078 42.9944C155.078 47.5171 158.067 50.5869 162.352 50.5869C166.636 50.5869 169.581 47.5171 169.581 42.9944C169.581 38.4716 166.592 35.4019 162.352 35.4019C158.111 35.4019 155.078 38.518 155.078 42.9944ZM168.06 22.8539V26.4956H156.684V22.8539H168.06Z" fill="black"/>
<path d="M202.775 40.1006V54.6302H197.645V41.5041C197.645 37.9923 195.505 35.8438 191.934 35.8438C188.008 35.884 185.553 38.5642 185.198 42.2059V54.6241H180.068V31.2778H185.198V35.7541C186.892 32.5082 189.913 31.117 193.942 31.117C199.475 31.1047 202.775 34.5269 202.775 40.1006Z" fill="black"/>
<path d="M216.342 35.0957C214.336 35.0957 212.862 35.7541 212.862 37.4235C212.862 41.7205 225.489 39.3927 225.435 47.8693C225.435 52.6486 221.11 54.8002 216.32 54.8002C212.84 54.8002 209.137 53.6595 206.773 51.5512L208.603 47.9528C210.655 49.752 213.946 50.8494 216.546 50.8494C218.746 50.8494 220.428 50.1044 220.428 48.3485C220.428 43.5661 207.93 46.2402 207.98 37.813C207.98 33.0801 212.17 31.0583 216.722 31.0583C219.711 31.0583 222.88 31.9393 225.024 33.4294L223.138 37.1607C221.072 35.884 218.454 35.0957 216.342 35.0957Z" fill="black"/>
<path d="M252.176 31.2778V54.6241H247.058V50.0581C245.452 53.3102 242.463 54.757 238.571 54.8003C233.127 54.8003 229.87 51.3781 229.87 45.8043V31.2747H235V44.3977C235 47.9065 237.097 50.055 240.533 50.055C244.638 49.9684 247.049 46.8554 247.049 42.7716V31.2778H252.176Z" fill="black"/>
<path d="M265.117 22.0621V54.6239H259.984V22.0621H265.117Z" fill="black"/>
<path d="M295.466 42.9078C295.466 49.9717 290.436 54.8004 283.103 54.8004C275.77 54.8004 270.699 49.9717 270.699 42.9078C270.699 35.8439 275.729 31.1048 283.103 31.1048C290.477 31.1048 295.466 35.8841 295.466 42.9078ZM275.832 42.9944C275.832 47.5171 278.819 50.5869 283.103 50.5869C287.34 50.5869 290.333 47.5171 290.333 42.9944C290.333 38.4716 287.337 35.4019 283.103 35.4019C278.806 35.4019 275.826 38.518 275.826 42.9944H275.832ZM288.814 22.8539V26.4956H277.439V22.8539H288.814Z" fill="black"/>
</svg>
