<svg width="2202" height="990" viewBox="0 0 2202 990" fill="none" xmlns="http://www.w3.org/2000/svg">
<rect y="18" width="2202" height="954" fill="#67ADB2"/>
<rect x="0.5" y="18.5" width="2201" height="953" stroke="#B6D8D4" stroke-opacity="0.4"/>
<path d="M597 965.263C597 973.58 590.274 980.305 582 980.305C573.726 980.305 567 973.58 567 965.263C567 956.945 573.726 950.221 582 950.221C590.274 950.221 597 956.945 597 965.263Z" stroke="#B6D8D4" stroke-opacity="0.4" stroke-width="10"/>
<path d="M543 87.1455C543 95.4629 536.274 102.188 528 102.188C519.726 102.188 513 95.4629 513 87.1455C513 78.8282 519.726 72.1035 528 72.1035C536.274 72.1035 543 78.8282 543 87.1455Z" stroke="#B6D8D4" stroke-opacity="0.4" stroke-width="10"/>
<path d="M680 614.249C680 622.566 673.274 629.291 665 629.291C656.726 629.291 650 622.566 650 614.249C650 605.932 656.726 599.207 665 599.207C673.274 599.207 680 605.932 680 614.249Z" stroke="#B6D8D4" stroke-opacity="0.4" stroke-width="10"/>
<path d="M238 382.284C238 390.602 231.274 397.326 223 397.326C214.726 397.326 208 390.602 208 382.284C208 373.967 214.726 367.242 223 367.242C231.274 367.242 238 373.967 238 382.284Z" stroke="#B6D8D4" stroke-opacity="0.4" stroke-width="10"/>
<path d="M1628 246.48C1628 254.797 1621.27 261.522 1613 261.522C1604.73 261.522 1598 254.797 1598 246.48C1598 238.162 1604.73 231.438 1613 231.438C1621.27 231.438 1628 238.162 1628 246.48Z" stroke="#B6D8D4" stroke-opacity="0.4" stroke-width="10"/>
<path d="M2108 365.364C2108 373.682 2101.27 380.406 2093 380.406C2084.73 380.406 2078 373.682 2078 365.364C2078 357.047 2084.73 350.322 2093 350.322C2101.27 350.322 2108 357.047 2108 365.364Z" stroke="#B6D8D4" stroke-opacity="0.4" stroke-width="10"/>
<path d="M2145 20.042C2145 28.3594 2138.27 35.084 2130 35.084C2121.73 35.084 2115 28.3594 2115 20.042C2115 11.7246 2121.73 5 2130 5C2138.27 5 2145 11.7246 2145 20.042Z" stroke="#B6D8D4" stroke-opacity="0.4" stroke-width="10"/>
<path d="M1122 348.692C1122 357.01 1115.27 363.734 1107 363.734C1098.73 363.734 1092 357.01 1092 348.692C1092 340.375 1098.73 333.65 1107 333.65C1115.27 333.65 1122 340.375 1122 348.692Z" stroke="#B6D8D4" stroke-opacity="0.4" stroke-width="10"/>
<path d="M1134 928.909C1134 937.227 1127.27 943.951 1119 943.951C1110.73 943.951 1104 937.227 1104 928.909C1104 920.592 1110.73 913.867 1119 913.867C1127.27 913.867 1134 920.592 1134 928.909Z" stroke="#B6D8D4" stroke-opacity="0.4" stroke-width="10"/>
<path d="M1692 654.335C1692 662.652 1685.27 669.377 1677 669.377C1668.73 669.377 1662 662.652 1662 654.335C1662 646.018 1668.73 639.293 1677 639.293C1685.27 639.293 1692 646.018 1692 654.335Z" stroke="#B6D8D4" stroke-opacity="0.4" stroke-width="10"/>
<path d="M2068 936.142C2068 944.459 2061.27 951.184 2053 951.184C2044.73 951.184 2038 944.459 2038 936.142C2038 927.824 2044.73 921.1 2053 921.1C2061.27 921.1 2068 927.824 2068 936.142Z" stroke="#B6D8D4" stroke-opacity="0.4" stroke-width="10"/>
<path d="M55 969.042C55 977.359 48.2744 984.084 40 984.084C31.7256 984.084 25 977.359 25 969.042C25 960.725 31.7256 954 40 954C48.2744 954 55 960.725 55 969.042Z" stroke="#B6D8D4" stroke-opacity="0.4" stroke-width="10"/>
<path d="M1388 928.909C1388 937.227 1381.27 943.951 1373 943.951C1364.73 943.951 1358 937.227 1358 928.909C1358 920.592 1364.73 913.867 1373 913.867C1381.27 913.867 1388 920.592 1388 928.909Z" stroke="#B6D8D4" stroke-opacity="0.4" stroke-width="10"/>
<path d="M646 918.665C646 924.486 641.293 929.193 635.5 929.193C629.707 929.193 625 924.486 625 918.665C625 912.844 629.707 908.137 635.5 908.137C641.293 908.137 646 912.844 646 918.665Z" stroke="#B6D8D4" stroke-opacity="0.4" stroke-width="6"/>
<path d="M729 567.651C729 573.472 724.293 578.18 718.5 578.18C712.707 578.18 708 573.472 708 567.651C708 561.831 712.707 557.123 718.5 557.123C724.293 557.123 729 561.831 729 567.651Z" stroke="#B6D8D4" stroke-opacity="0.4" stroke-width="6"/>
<path d="M287 335.687C287 341.507 282.293 346.215 276.5 346.215C270.707 346.215 266 341.507 266 335.687C266 329.866 270.707 325.158 276.5 325.158C282.293 325.158 287 329.866 287 335.687Z" stroke="#B6D8D4" stroke-opacity="0.4" stroke-width="6"/>
<path d="M117 93.6866C117 99.5072 112.293 104.215 106.5 104.215C100.707 104.215 96 99.5072 96 93.6866C96 87.866 100.707 83.1582 106.5 83.1582C112.293 83.1582 117 87.866 117 93.6866Z" stroke="#B6D8D4" stroke-opacity="0.4" stroke-width="6"/>
<path d="M562 149.776C562 155.597 557.293 160.305 551.5 160.305C545.707 160.305 541 155.597 541 149.776C541 143.956 545.707 139.248 551.5 139.248C557.293 139.248 562 143.956 562 149.776Z" stroke="#B6D8D4" stroke-opacity="0.4" stroke-width="6"/>
<path d="M1590 162.804C1590 168.624 1585.29 173.332 1579.5 173.332C1573.71 173.332 1569 168.624 1569 162.804C1569 156.983 1573.71 152.275 1579.5 152.275C1585.29 152.275 1590 156.983 1590 162.804Z" stroke="#B6D8D4" stroke-opacity="0.4" stroke-width="6"/>
<path d="M1171 302.095C1171 307.915 1166.29 312.623 1160.5 312.623C1154.71 312.623 1150 307.915 1150 302.095C1150 296.274 1154.71 291.566 1160.5 291.566C1166.29 291.566 1171 296.274 1171 302.095Z" stroke="#B6D8D4" stroke-opacity="0.4" stroke-width="6"/>
<path d="M1183 882.312C1183 888.132 1178.29 892.84 1172.5 892.84C1166.71 892.84 1162 888.132 1162 882.312C1162 876.491 1166.71 871.783 1172.5 871.783C1178.29 871.783 1183 876.491 1183 882.312Z" stroke="#B6D8D4" stroke-opacity="0.4" stroke-width="6"/>
<path d="M1151 540.595C1151 546.415 1146.29 551.123 1140.5 551.123C1134.71 551.123 1130 546.415 1130 540.595C1130 534.774 1134.71 530.066 1140.5 530.066C1146.29 530.066 1151 534.774 1151 540.595Z" stroke="#B6D8D4" stroke-opacity="0.4" stroke-width="6"/>
<path d="M578 857.036C578 864.243 572.172 870.071 565 870.071C557.828 870.071 552 864.243 552 857.036C552 849.828 557.828 844 565 844C572.172 844 578 849.828 578 857.036Z" stroke="#B6D8D4" stroke-opacity="0.4" stroke-width="8"/>
<path d="M695 495.001C695 502.208 689.172 508.036 682 508.036C674.828 508.036 669 502.208 669 495.001C669 487.793 674.828 481.965 682 481.965C689.172 481.965 695 487.793 695 495.001Z" stroke="#B6D8D4" stroke-opacity="0.4" stroke-width="8"/>
<path d="M253 263.036C253 270.243 247.172 276.071 240 276.071C232.828 276.071 227 270.243 227 263.036C227 255.828 232.828 250 240 250C247.172 250 253 255.828 253 263.036Z" stroke="#B6D8D4" stroke-opacity="0.4" stroke-width="8"/>
<path d="M83 21.0357C83 28.2431 77.1718 34.0714 70 34.0714C62.8282 34.0714 57 28.2431 57 21.0357C57 13.8284 62.8282 8 70 8C77.1718 8 83 13.8284 83 21.0357Z" stroke="#B6D8D4" stroke-opacity="0.4" stroke-width="8"/>
<path d="M1643 90.1509C1643 97.3583 1637.17 103.187 1630 103.187C1622.83 103.187 1617 97.3583 1617 90.1509C1617 82.9436 1622.83 77.1152 1630 77.1152C1637.17 77.1152 1643 82.9436 1643 90.1509Z" stroke="#B6D8D4" stroke-opacity="0.4" stroke-width="8"/>
<path d="M2126 284.036C2126 291.243 2120.17 297.071 2113 297.071C2105.83 297.071 2100 291.243 2100 284.036C2100 276.828 2105.83 271 2113 271C2120.17 271 2126 276.828 2126 284.036Z" stroke="#B6D8D4" stroke-opacity="0.4" stroke-width="8"/>
<path d="M1137 229.444C1137 236.651 1131.17 242.48 1124 242.48C1116.83 242.48 1111 236.651 1111 229.444C1111 222.237 1116.83 216.408 1124 216.408C1131.17 216.408 1137 222.237 1137 229.444Z" stroke="#B6D8D4" stroke-opacity="0.4" stroke-width="8"/>
<path d="M1115 820.682C1115 827.89 1109.17 833.718 1102 833.718C1094.83 833.718 1089 827.89 1089 820.682C1089 813.475 1094.83 807.646 1102 807.646C1109.17 807.646 1115 813.475 1115 820.682Z" stroke="#B6D8D4" stroke-opacity="0.4" stroke-width="8"/>
<path d="M1427 882.312C1427 888.132 1422.29 892.84 1416.5 892.84C1410.71 892.84 1406 888.132 1406 882.312C1406 876.491 1410.71 871.783 1416.5 871.783C1422.29 871.783 1427 876.491 1427 882.312Z" stroke="#B6D8D4" stroke-opacity="0.4" stroke-width="6"/>
<path d="M1654 600.722C1654 606.542 1649.29 611.25 1643.5 611.25C1637.71 611.25 1633 606.542 1633 600.722C1633 594.901 1637.71 590.193 1643.5 590.193C1649.29 590.193 1654 594.901 1654 600.722Z" stroke="#B6D8D4" stroke-opacity="0.4" stroke-width="6"/>
<path d="M2030 882.528C2030 888.349 2025.29 893.057 2019.5 893.057C2013.71 893.057 2009 888.349 2009 882.528C2009 876.708 2013.71 872 2019.5 872C2025.29 872 2030 876.708 2030 882.528Z" stroke="#B6D8D4" stroke-opacity="0.4" stroke-width="6"/>
<path d="M70 922.528C70 928.349 65.2931 933.057 59.5 933.057C53.7069 933.057 49 928.349 49 922.528C49 916.708 53.7069 912 59.5 912C65.2931 912 70 916.708 70 922.528Z" stroke="#B6D8D4" stroke-opacity="0.4" stroke-width="6"/>
</svg>
