<svg width="92" height="97" viewBox="0 0 92 97" fill="none" xmlns="http://www.w3.org/2000/svg">
<mask id="path-1-inside-1_131_2" fill="white">
<path fill-rule="evenodd" clip-rule="evenodd" d="M20.9362 22.0203C22.0115 19.0458 21.254 15.5867 18.7556 13.344C15.4677 10.3926 10.4097 10.6654 7.45832 13.9533C4.50691 17.2412 4.7797 22.2991 8.06761 25.2506C10.566 27.4933 14.0865 27.8743 16.9282 26.4853L24.8025 33.5538L28.8105 29.0888L20.9362 22.0203Z"/>
</mask>
<path fill-rule="evenodd" clip-rule="evenodd" d="M20.9362 22.0203C22.0115 19.0458 21.254 15.5867 18.7556 13.344C15.4677 10.3926 10.4097 10.6654 7.45832 13.9533C4.50691 17.2412 4.7797 22.2991 8.06761 25.2506C10.566 27.4933 14.0865 27.8743 16.9282 26.4853L24.8025 33.5538L28.8105 29.0888L20.9362 22.0203Z" fill="#ED1C24"/>
<path d="M20.9362 22.0203L19.0553 21.3404L18.597 22.6082L19.6002 23.5087L20.9362 22.0203ZM16.9282 26.4853L18.2642 24.997L17.261 24.0965L16.0499 24.6885L16.9282 26.4853ZM24.8025 33.5538L23.4665 35.0421L24.9548 36.3781L26.2908 34.8898L24.8025 33.5538ZM28.8105 29.0888L30.2988 30.4248L31.6348 28.9365L30.1465 27.6005L28.8105 29.0888ZM17.4196 14.8323C19.2911 16.5123 19.8631 19.1058 19.0553 21.3404L22.817 22.7003C24.1598 18.9859 23.217 14.6612 20.0916 11.8557L17.4196 14.8323ZM8.94664 15.2893C11.1602 12.8233 14.9537 12.6187 17.4196 14.8323L20.0916 11.8557C15.9817 8.1664 9.65927 8.50738 5.97 12.6173L8.94664 15.2893ZM9.40361 23.7622C6.93767 21.5487 6.73309 17.7552 8.94664 15.2893L5.97 12.6173C2.28074 16.7272 2.62172 23.0496 6.7316 26.7389L9.40361 23.7622ZM16.0499 24.6885C13.9151 25.732 11.2751 25.4422 9.40361 23.7622L6.7316 26.7389C9.85698 29.5444 14.258 30.0166 17.8064 28.2821L16.0499 24.6885ZM26.1385 32.0654L18.2642 24.997L15.5922 27.9736L23.4665 35.0421L26.1385 32.0654ZM27.3222 27.7528L23.3142 32.2178L26.2908 34.8898L30.2988 30.4248L27.3222 27.7528ZM19.6002 23.5087L27.4745 30.5771L30.1465 27.6005L22.2722 20.532L19.6002 23.5087Z" fill="black" mask="url(#path-1-inside-1_131_2)"/>
<mask id="path-3-inside-2_131_2" fill="white">
<path fill-rule="evenodd" clip-rule="evenodd" d="M75.3747 25.6807C78.287 26.9146 81.7819 26.3446 84.1559 23.9706C87.2801 20.8464 87.2801 15.781 84.1559 12.6569C81.0317 9.53266 75.9664 9.53266 72.8422 12.6569C70.4682 15.0309 69.8982 18.5258 71.1321 21.438L63.6498 28.9203L67.8925 33.163L75.3747 25.6807Z"/>
</mask>
<path fill-rule="evenodd" clip-rule="evenodd" d="M75.3747 25.6807C78.287 26.9146 81.7819 26.3446 84.1559 23.9706C87.2801 20.8464 87.2801 15.781 84.1559 12.6569C81.0317 9.53266 75.9664 9.53266 72.8422 12.6569C70.4682 15.0309 69.8982 18.5258 71.1321 21.438L63.6498 28.9203L67.8925 33.163L75.3747 25.6807Z" fill="#0094D9"/>
<path d="M75.3747 25.6807L76.155 23.8392L74.9138 23.3133L73.9605 24.2665L75.3747 25.6807ZM71.1321 21.438L72.5463 22.8523L73.4995 21.899L72.9736 20.6578L71.1321 21.438ZM63.6498 28.9203L62.2356 27.5061L60.8214 28.9203L62.2356 30.3345L63.6498 28.9203ZM67.8925 33.163L66.4783 34.5772L67.8925 35.9914L69.3067 34.5772L67.8925 33.163ZM82.7417 22.5563C80.9634 24.3346 78.3429 24.7662 76.155 23.8392L74.5945 27.5222C78.2312 29.0631 82.6004 28.3545 85.5702 25.3848L82.7417 22.5563ZM82.7417 14.0711C85.0849 16.4142 85.0849 20.2132 82.7417 22.5563L85.5702 25.3848C89.4754 21.4795 89.4754 15.1479 85.5702 11.2426L82.7417 14.0711ZM74.2564 14.0711C76.5996 11.7279 80.3986 11.7279 82.7417 14.0711L85.5702 11.2426C81.6649 7.3374 75.3333 7.3374 71.428 11.2426L74.2564 14.0711ZM72.9736 20.6578C72.0466 18.4699 72.4782 15.8494 74.2564 14.0711L71.428 11.2426C68.4583 14.2124 67.7497 18.5816 69.2906 22.2183L72.9736 20.6578ZM65.0641 30.3345L72.5463 22.8523L69.7179 20.0238L62.2356 27.5061L65.0641 30.3345ZM69.3067 31.7487L65.0641 27.5061L62.2356 30.3345L66.4783 34.5772L69.3067 31.7487ZM73.9605 24.2665L66.4783 31.7487L69.3067 34.5772L76.789 27.0949L73.9605 24.2665Z" fill="black" mask="url(#path-3-inside-2_131_2)"/>
<mask id="path-5-inside-3_131_2" fill="white">
<path fill-rule="evenodd" clip-rule="evenodd" d="M38.0858 79.2857V88.5857C38.0858 93.2328 41.853 97 46.5 97C51.1471 97 54.9143 93.2328 54.9143 88.5857V79.2857H38.0858Z"/>
</mask>
<path fill-rule="evenodd" clip-rule="evenodd" d="M38.0858 79.2857V88.5857C38.0858 93.2328 41.853 97 46.5 97C51.1471 97 54.9143 93.2328 54.9143 88.5857V79.2857H38.0858Z" fill="#ED1C24"/>
<path d="M38.0858 79.2857V77.2857H36.0858V79.2857H38.0858ZM54.9143 79.2857H56.9143V77.2857H54.9143V79.2857ZM40.0858 88.5857V79.2857H36.0858V88.5857H40.0858ZM46.5 95C42.9575 95 40.0858 92.1282 40.0858 88.5857H36.0858C36.0858 94.3374 40.7484 99 46.5 99V95ZM52.9143 88.5857C52.9143 92.1282 50.0426 95 46.5 95V99C52.2517 99 56.9143 94.3374 56.9143 88.5857H52.9143ZM52.9143 79.2857V88.5857H56.9143V79.2857H52.9143ZM54.9143 77.2857H38.0858V81.2857H54.9143V77.2857Z" fill="black" mask="url(#path-5-inside-3_131_2)"/>
<mask id="path-7-inside-4_131_2" fill="white">
<path fill-rule="evenodd" clip-rule="evenodd" d="M54.8286 17.7143L54.8286 8.41429C54.8286 3.76721 51.0614 4.14404e-06 46.4143 4.5503e-06C41.7672 4.95656e-06 38 3.76721 38 8.41429L38 17.7143L54.8286 17.7143Z"/>
</mask>
<path fill-rule="evenodd" clip-rule="evenodd" d="M54.8286 17.7143L54.8286 8.41429C54.8286 3.76721 51.0614 4.14404e-06 46.4143 4.5503e-06C41.7672 4.95656e-06 38 3.76721 38 8.41429L38 17.7143L54.8286 17.7143Z" fill="#0094D9"/>
<path d="M54.8286 17.7143L54.8286 19.7143L56.8286 19.7143L56.8286 17.7143L54.8286 17.7143ZM38 17.7143L36 17.7143L36 19.7143L38 19.7143L38 17.7143ZM52.8286 8.41429L52.8286 17.7143L56.8286 17.7143L56.8286 8.41429L52.8286 8.41429ZM46.4143 2C49.9568 2 52.8286 4.87178 52.8286 8.41429L56.8286 8.41429C56.8286 2.66264 52.1659 -2 46.4143 -2L46.4143 2ZM40 8.41429C40 4.87178 42.8718 2 46.4143 2L46.4143 -2C40.6626 -1.99999 36 2.66264 36 8.41429L40 8.41429ZM40 17.7143L40 8.41429L36 8.41429L36 17.7143L40 17.7143ZM38 19.7143L54.8286 19.7143L54.8286 15.7143L38 15.7143L38 19.7143Z" fill="black" mask="url(#path-7-inside-4_131_2)"/>
<mask id="path-9-inside-5_131_2" fill="white">
<path fill-rule="evenodd" clip-rule="evenodd" d="M17.7143 40.3143L8.41429 40.3143C3.76721 40.3143 5.55738e-06 44.0815 5.35425e-06 48.7286C5.15112e-06 53.3756 3.76721 57.1428 8.41429 57.1428L17.7143 57.1428L17.7143 40.3143Z"/>
</mask>
<path fill-rule="evenodd" clip-rule="evenodd" d="M17.7143 40.3143L8.41429 40.3143C3.76721 40.3143 5.55738e-06 44.0815 5.35425e-06 48.7286C5.15112e-06 53.3756 3.76721 57.1428 8.41429 57.1428L17.7143 57.1428L17.7143 40.3143Z" fill="#4CB249"/>
<path d="M17.7143 40.3143L19.7143 40.3143L19.7143 38.3143L17.7143 38.3143L17.7143 40.3143ZM8.41429 57.1428L8.41429 59.1428L8.41429 57.1428ZM17.7143 57.1428L17.7143 59.1428L19.7143 59.1428L19.7143 57.1428L17.7143 57.1428ZM8.41429 42.3143L17.7143 42.3143L17.7143 38.3143L8.41429 38.3143L8.41429 42.3143ZM2.00001 48.7286C2.00001 45.186 4.87178 42.3143 8.41429 42.3143L8.41429 38.3143C2.66264 38.3143 -1.99999 42.9769 -1.99999 48.7286L2.00001 48.7286ZM8.41429 55.1428C4.87178 55.1428 2.00001 52.2711 2.00001 48.7286L-1.99999 48.7286C-1.99999 54.4802 2.66264 59.1428 8.41429 59.1428L8.41429 55.1428ZM17.7143 55.1428L8.41429 55.1428L8.41429 59.1428L17.7143 59.1428L17.7143 55.1428ZM19.7143 57.1428L19.7143 40.3143L15.7143 40.3143L15.7143 57.1428L19.7143 57.1428Z" fill="black" mask="url(#path-9-inside-5_131_2)"/>
<mask id="path-11-inside-6_131_2" fill="white">
<path fill-rule="evenodd" clip-rule="evenodd" d="M73.5143 57.1429L82.8143 57.1429C87.4614 57.1429 91.2286 53.3756 91.2286 48.7286C91.2286 44.0815 87.4614 40.3143 82.8143 40.3143L73.5143 40.3143L73.5143 57.1429Z"/>
</mask>
<path fill-rule="evenodd" clip-rule="evenodd" d="M73.5143 57.1429L82.8143 57.1429C87.4614 57.1429 91.2286 53.3756 91.2286 48.7286C91.2286 44.0815 87.4614 40.3143 82.8143 40.3143L73.5143 40.3143L73.5143 57.1429Z" fill="#0094D9"/>
<path d="M73.5143 57.1429L71.5143 57.1429L71.5143 59.1429L73.5143 59.1429L73.5143 57.1429ZM82.8143 40.3143L82.8143 42.3143L82.8143 40.3143ZM73.5143 40.3143L73.5143 38.3143L71.5143 38.3143L71.5143 40.3143L73.5143 40.3143ZM82.8143 55.1429L73.5143 55.1429L73.5143 59.1429L82.8143 59.1429L82.8143 55.1429ZM89.2286 48.7286C89.2286 52.2711 86.3569 55.1429 82.8143 55.1429L82.8143 59.1429C88.566 59.1429 93.2286 54.4802 93.2286 48.7286L89.2286 48.7286ZM82.8143 42.3143C86.3569 42.3143 89.2286 45.1861 89.2286 48.7286L93.2286 48.7286C93.2286 42.9769 88.566 38.3143 82.8143 38.3143L82.8143 42.3143ZM73.5143 42.3143L82.8143 42.3143L82.8143 38.3143L73.5143 38.3143L73.5143 42.3143ZM71.5143 40.3143L71.5143 57.1429L75.5143 57.1429L75.5143 40.3143L71.5143 40.3143Z" fill="black" mask="url(#path-11-inside-6_131_2)"/>
<mask id="path-13-inside-7_131_2" fill="white">
<path fill-rule="evenodd" clip-rule="evenodd" d="M46.0572 82.8229C64.686 82.5858 79.7143 67.4108 79.7143 48.7258C79.7143 30.0407 64.686 14.8657 46.0572 14.6286V27.6303C57.5059 27.866 66.7143 37.2205 66.7143 48.7258C66.7143 60.231 57.5059 69.5855 46.0572 69.8212V82.8229Z"/>
</mask>
<path fill-rule="evenodd" clip-rule="evenodd" d="M46.0572 82.8229C64.686 82.5858 79.7143 67.4108 79.7143 48.7258C79.7143 30.0407 64.686 14.8657 46.0572 14.6286V27.6303C57.5059 27.866 66.7143 37.2205 66.7143 48.7258C66.7143 60.231 57.5059 69.5855 46.0572 69.8212V82.8229Z" fill="#0094D9"/>
<path d="M46.0572 82.8229H44.0572V84.8486L46.0826 84.8228L46.0572 82.8229ZM46.0572 14.6286L46.0826 12.6287L44.0572 12.603V14.6286H46.0572ZM46.0572 27.6303H44.0572V29.5896L46.016 29.6299L46.0572 27.6303ZM46.0572 69.8212L46.016 67.8216L44.0572 67.862V69.8212H46.0572ZM46.0826 84.8228C65.8046 84.5718 81.7143 68.5069 81.7143 48.7258H77.7143C77.7143 66.3148 63.5674 80.5999 46.0317 80.8231L46.0826 84.8228ZM81.7143 48.7258C81.7143 28.9446 65.8046 12.8797 46.0826 12.6287L46.0317 16.6284C63.5674 16.8516 77.7143 31.1367 77.7143 48.7258H81.7143ZM44.0572 14.6286V27.6303H48.0572V14.6286H44.0572ZM68.7143 48.7258C68.7143 36.1297 58.6331 25.8888 46.0984 25.6307L46.016 29.6299C56.3787 29.8432 64.7143 38.3113 64.7143 48.7258H68.7143ZM46.0984 71.8208C58.6331 71.5627 68.7143 61.3218 68.7143 48.7258H64.7143C64.7143 59.1402 56.3787 67.6083 46.016 67.8216L46.0984 71.8208ZM44.0572 69.8212V82.8229H48.0572V69.8212H44.0572Z" fill="black" mask="url(#path-13-inside-7_131_2)"/>
<mask id="path-15-inside-8_131_2" fill="white">
<path fill-rule="evenodd" clip-rule="evenodd" d="M46.9429 14.6286C28.3141 14.8657 13.2857 30.0407 13.2857 48.7258C13.2857 67.4108 28.3141 82.5858 46.9429 82.8229L46.9429 69.8212C35.4941 69.5855 26.2857 60.231 26.2857 48.7258C26.2857 37.2205 35.4941 27.866 46.9429 27.6303L46.9429 14.6286Z"/>
</mask>
<path fill-rule="evenodd" clip-rule="evenodd" d="M46.9429 14.6286C28.3141 14.8657 13.2857 30.0407 13.2857 48.7258C13.2857 67.4108 28.3141 82.5858 46.9429 82.8229L46.9429 69.8212C35.4941 69.5855 26.2857 60.231 26.2857 48.7258C26.2857 37.2205 35.4941 27.866 46.9429 27.6303L46.9429 14.6286Z" fill="#4CB249"/>
<path d="M46.9429 14.6286L48.9429 14.6286L48.9429 12.603L46.9174 12.6287L46.9429 14.6286ZM46.9429 82.8229L46.9174 84.8228L48.9429 84.8486L48.9429 82.8229L46.9429 82.8229ZM46.9429 69.8212L48.9429 69.8212L48.9429 67.862L46.984 67.8216L46.9429 69.8212ZM46.9429 27.6303L46.984 29.6299L48.9429 29.5896L48.9429 27.6303L46.9429 27.6303ZM46.9174 12.6287C27.1955 12.8798 11.2857 28.9446 11.2857 48.7258L15.2857 48.7258C15.2857 31.1367 29.4327 16.8516 46.9683 16.6284L46.9174 12.6287ZM11.2857 48.7258C11.2857 68.5069 27.1955 84.5718 46.9174 84.8228L46.9683 80.8231C29.4327 80.5999 15.2857 66.3148 15.2857 48.7258L11.2857 48.7258ZM48.9429 82.8229L48.9429 69.8212L44.9429 69.8212L44.9429 82.8229L48.9429 82.8229ZM24.2857 48.7258C24.2857 61.3218 34.3669 71.5627 46.9017 71.8208L46.984 67.8216C36.6213 67.6083 28.2857 59.1402 28.2857 48.7258L24.2857 48.7258ZM46.9017 25.6307C34.3669 25.8888 24.2857 36.1298 24.2857 48.7258L28.2857 48.7258C28.2857 38.3113 36.6213 29.8433 46.984 29.6299L46.9017 25.6307ZM48.9429 27.6303L48.9429 14.6286L44.9429 14.6286L44.9429 27.6303L48.9429 27.6303Z" fill="black" mask="url(#path-15-inside-8_131_2)"/>
<circle cx="46.5" cy="48.5" r="11.5" fill="#0094D9" stroke="black" stroke-width="2"/>
<circle cx="12.1143" cy="80" r="8" fill="#4CB249" stroke="black" stroke-width="2"/>
<circle cx="80" cy="80" r="8" fill="#0094D9" stroke="black" stroke-width="2"/>
</svg>
