<svg width="192" height="55" viewBox="0 0 192 55" fill="none" xmlns="http://www.w3.org/2000/svg">
<g clip-path="url(#clip0_3372_441)">
<path fill-rule="evenodd" clip-rule="evenodd" d="M11.2059 12.4857C11.7814 10.7992 11.376 8.83781 10.0387 7.56618C8.27892 5.8927 5.57169 6.04739 3.992 7.91166C2.41229 9.77593 2.5583 12.6438 4.31811 14.3173C5.65535 15.589 7.53965 15.805 9.06064 15.0174L13.2753 19.0253L15.4205 16.4936L11.2059 12.4857Z" fill="#ED1C24"/>
<mask id="mask0_3372_441" style="mask-type:luminance" maskUnits="userSpaceOnUse" x="2" y="6" width="14" height="14">
<path fill-rule="evenodd" clip-rule="evenodd" d="M11.2059 12.4857C11.7814 10.7992 11.376 8.83781 10.0387 7.56618C8.27892 5.8927 5.57169 6.04739 3.992 7.91166C2.41229 9.77593 2.5583 12.6438 4.31811 14.3173C5.65535 15.589 7.53965 15.805 9.06064 15.0174L13.2753 19.0253L15.4205 16.4936L11.2059 12.4857Z" fill="white"/>
</mask>
<g mask="url(#mask0_3372_441)">
<path d="M11.2058 12.4857L10.1991 12.1002L9.95377 12.8191L10.4907 13.3297L11.2058 12.4857ZM9.06056 15.0174L9.77564 14.1736L9.23869 13.663L8.59046 13.9986L9.06056 15.0174ZM13.2752 19.0254L12.5601 19.8692L13.3567 20.6268L14.0718 19.7829L13.2752 19.0254ZM15.4204 16.4937L16.217 17.2512L16.9321 16.4073L16.1355 15.6498L15.4204 16.4937ZM9.32358 8.41007C10.3253 9.36265 10.6314 10.8332 10.1991 12.1002L12.2125 12.8713C12.9312 10.7652 12.4266 8.31305 10.7537 6.72231L9.32358 8.41007ZM4.78853 8.66919C5.97331 7.27095 8.00374 7.15494 9.32358 8.41007L10.7537 6.72231C8.55396 4.63044 5.16996 4.82378 3.19532 7.15414L4.78853 8.66919ZM5.03312 13.4734C3.71326 12.2183 3.60376 10.0674 4.78853 8.66919L3.19532 7.15414C1.22069 9.4845 1.4032 13.0694 3.60296 15.1612L5.03312 13.4734ZM8.59046 13.9986C7.44784 14.5903 6.03481 14.426 5.03312 13.4734L3.60296 15.1612C5.27578 16.752 7.63137 17.0197 9.53061 16.0362L8.59046 13.9986ZM13.9903 18.1814L9.77564 14.1736L8.34549 15.8613L12.5601 19.8692L13.9903 18.1814ZM14.6238 15.7361L12.4786 18.2678L14.0718 19.7829L16.217 17.2512L14.6238 15.7361ZM10.4907 13.3297L14.7053 17.3375L16.1355 15.6498L11.9209 11.6419L10.4907 13.3297Z" fill="black"/>
</g>
<path fill-rule="evenodd" clip-rule="evenodd" d="M40.3435 14.5612C41.9023 15.2609 43.7729 14.9377 45.0435 13.5916C46.7157 11.8201 46.7157 8.948 45.0435 7.1766C43.3713 5.40512 40.6602 5.40512 38.988 7.1766C37.7173 8.52268 37.4123 10.5043 38.0727 12.1556L34.0679 16.3981L36.3387 18.8038L40.3435 14.5612Z" fill="#0094D9"/>
<mask id="mask1_3372_441" style="mask-type:luminance" maskUnits="userSpaceOnUse" x="34" y="5" width="13" height="14">
<path fill-rule="evenodd" clip-rule="evenodd" d="M40.3435 14.5612C41.9023 15.2609 43.7729 14.9377 45.0435 13.5916C46.7157 11.8201 46.7157 8.948 45.0435 7.1766C43.3713 5.40512 40.6602 5.40512 38.988 7.1766C37.7173 8.52268 37.4123 10.5043 38.0727 12.1556L34.0679 16.3981L36.3387 18.8038L40.3435 14.5612Z" fill="white"/>
</mask>
<g mask="url(#mask1_3372_441)">
<path d="M40.3434 14.5612L40.7611 13.5171L40.0967 13.2189L39.5865 13.7594L40.3434 14.5612ZM38.0726 12.1556L38.8296 12.9575L39.3398 12.417L39.0583 11.7132L38.0726 12.1556ZM34.0678 16.3981L33.3109 15.5962L32.554 16.3981L33.3109 17.2L34.0678 16.3981ZM36.3387 18.8038L35.5817 19.6056L36.3387 20.4075L37.0956 19.6056L36.3387 18.8038ZM44.2865 12.7897C43.3347 13.798 41.9321 14.0427 40.7611 13.5171L39.9258 15.6054C41.8723 16.4791 44.2109 16.0773 45.8004 14.3934L44.2865 12.7897ZM44.2865 7.97846C45.5407 9.30703 45.5407 11.4611 44.2865 12.7897L45.8004 14.3934C47.8907 12.1791 47.8907 8.58902 45.8004 6.37468L44.2865 7.97846ZM39.7449 7.97846C40.999 6.64985 43.0324 6.64985 44.2865 7.97846L45.8004 6.37468C43.7102 4.16039 40.3213 4.16039 38.231 6.37468L39.7449 7.97846ZM39.0583 11.7132C38.5621 10.4726 38.7931 8.98678 39.7449 7.97846L38.231 6.37468C36.6415 8.05858 36.2622 10.536 37.087 12.598L39.0583 11.7132ZM34.8248 17.2L38.8296 12.9575L37.3157 11.3537L33.3109 15.5962L34.8248 17.2ZM37.0956 18.0018L34.8248 15.5962L33.3109 17.2L35.5817 19.6056L37.0956 18.0018ZM39.5865 13.7594L35.5817 18.0018L37.0956 19.6056L41.1004 15.3631L39.5865 13.7594Z" fill="black"/>
</g>
<path fill-rule="evenodd" clip-rule="evenodd" d="M20.385 44.9558V50.229C20.385 52.864 22.4014 55 24.8886 55C27.3759 55 29.3923 52.864 29.3923 50.229V44.9558H20.385Z" fill="#ED1C24"/>
<mask id="mask2_3372_441" style="mask-type:luminance" maskUnits="userSpaceOnUse" x="20" y="44" width="10" height="11">
<path fill-rule="evenodd" clip-rule="evenodd" d="M20.385 44.9558V50.229C20.385 52.864 22.4014 55 24.8886 55C27.3759 55 29.3923 52.864 29.3923 50.229V44.9558H20.385Z" fill="white"/>
</mask>
<g mask="url(#mask2_3372_441)">
<path d="M20.3849 44.9558V43.8218H19.3145V44.9558H20.3849ZM29.3922 44.9558H30.4627V43.8218H29.3922V44.9558ZM21.4554 50.229V44.9558H19.3145V50.229H21.4554ZM24.8885 53.866C22.9924 53.866 21.4554 52.2376 21.4554 50.229H19.3145C19.3145 53.4903 21.8101 56.134 24.8885 56.134V53.866ZM28.3217 50.229C28.3217 52.2376 26.7847 53.866 24.8885 53.866V56.134C27.9671 56.134 30.4627 53.4903 30.4627 50.229H28.3217ZM28.3217 44.9558V50.229H30.4627V44.9558H28.3217ZM29.3922 43.8218H20.3849V46.0898H29.3922V43.8218Z" fill="black"/>
</g>
<path fill-rule="evenodd" clip-rule="evenodd" d="M29.3464 10.0442V4.77099C29.3464 2.13604 27.3301 -2.30354e-07 24.8428 0C22.3555 2.30354e-07 20.3391 2.13604 20.3391 4.77099V10.0442H29.3464Z" fill="#0094D9"/>
<mask id="mask3_3372_441" style="mask-type:luminance" maskUnits="userSpaceOnUse" x="20" y="0" width="10" height="11">
<path fill-rule="evenodd" clip-rule="evenodd" d="M29.3464 10.0442V4.77099C29.3464 2.13604 27.3301 -2.30354e-07 24.8428 0C22.3555 2.30354e-07 20.3391 2.13604 20.3391 4.77099V10.0442H29.3464Z" fill="white"/>
</mask>
<g mask="url(#mask3_3372_441)">
<path d="M29.3463 10.0442V11.1782H30.4168V10.0442H29.3463ZM20.339 10.0442H19.2686V11.1782H20.339V10.0442ZM28.2759 4.77098V10.0442H30.4168V4.77098H28.2759ZM24.8427 1.13401C26.7388 1.13401 28.2759 2.76234 28.2759 4.77098H30.4168C30.4168 1.50973 27.9212 -1.13403 24.8427 -1.13403V1.13401ZM21.4095 4.77098C21.4095 2.76234 22.9466 1.13401 24.8427 1.13401V-1.13403C21.7642 -1.13403 19.2686 1.50973 19.2686 4.77098H21.4095ZM21.4095 10.0442V4.77098H19.2686V10.0442H21.4095ZM20.339 11.1782H29.3463V8.91016H20.339V11.1782Z" fill="black"/>
</g>
<path fill-rule="evenodd" clip-rule="evenodd" d="M9.48136 22.8586H4.50365C2.01635 22.8586 1.08723e-07 24.9947 0 27.6296C-1.08723e-07 30.2645 2.01635 32.4006 4.50364 32.4006H9.48136V22.8586Z" fill="#4CB249"/>
<mask id="mask4_3372_441" style="mask-type:luminance" maskUnits="userSpaceOnUse" x="0" y="22" width="10" height="11">
<path fill-rule="evenodd" clip-rule="evenodd" d="M9.48136 22.8586H4.50365C2.01635 22.8586 1.08723e-07 24.9947 0 27.6296C-1.08723e-07 30.2645 2.01635 32.4006 4.50364 32.4006H9.48136V22.8586Z" fill="white"/>
</mask>
<g mask="url(#mask4_3372_441)">
<path d="M9.48128 22.8586H10.5518V21.7246H9.48128V22.8586ZM9.48128 32.4006V33.5346H10.5518V32.4006H9.48128ZM4.50356 23.9927H9.48128V21.7246H4.50356V23.9927ZM1.07039 27.6296C1.07039 25.6209 2.60747 23.9927 4.50356 23.9927V21.7246C1.42506 21.7246 -1.07056 24.3684 -1.07056 27.6296H1.07039ZM4.50356 31.2665C2.60747 31.2665 1.07039 29.6383 1.07039 27.6296H-1.07056C-1.07056 30.8908 1.42506 33.5346 4.50356 33.5346V31.2665ZM9.48128 31.2665H4.50356V33.5346H9.48128V31.2665ZM10.5518 32.4006V22.8586H8.41081V32.4006H10.5518Z" fill="black"/>
</g>
<path fill-rule="evenodd" clip-rule="evenodd" d="M39.3477 32.4006H44.3254C46.8127 32.4006 48.829 30.2645 48.829 27.6296C48.829 24.9947 46.8127 22.8586 44.3254 22.8586H39.3477V32.4006Z" fill="#0094D9"/>
<mask id="mask5_3372_441" style="mask-type:luminance" maskUnits="userSpaceOnUse" x="39" y="22" width="10" height="11">
<path fill-rule="evenodd" clip-rule="evenodd" d="M39.3477 32.4006H44.3254C46.8127 32.4006 48.829 30.2645 48.829 27.6296C48.829 24.9947 46.8127 22.8586 44.3254 22.8586H39.3477V32.4006Z" fill="white"/>
</mask>
<g mask="url(#mask5_3372_441)">
<path d="M39.3476 32.4006H38.2771V33.5346H39.3476V32.4006ZM39.3476 22.8586V21.7246H38.2771V22.8586H39.3476ZM44.3253 31.2666H39.3476V33.5346H44.3253V31.2666ZM47.7585 27.6296C47.7585 29.6383 46.2214 31.2666 44.3253 31.2666V33.5346C47.4038 33.5346 49.8994 30.8908 49.8994 27.6296H47.7585ZM44.3253 23.9927C46.2214 23.9927 47.7585 25.621 47.7585 27.6296H49.8994C49.8994 24.3684 47.4038 21.7246 44.3253 21.7246V23.9927ZM39.3476 23.9927H44.3253V21.7246H39.3476V23.9927ZM38.2771 22.8586V32.4006H40.4181V22.8586H38.2771Z" fill="black"/>
</g>
<path fill-rule="evenodd" clip-rule="evenodd" d="M24.6516 46.9614C34.6224 46.827 42.6662 38.2226 42.6662 27.628C42.6662 17.0334 34.6224 8.42899 24.6516 8.29456V15.6667C30.7794 15.8003 35.7081 21.1044 35.7081 27.628C35.7081 34.1516 30.7794 39.4557 24.6516 39.5893V46.9614Z" fill="#0094D9"/>
<mask id="mask6_3372_441" style="mask-type:luminance" maskUnits="userSpaceOnUse" x="24" y="8" width="19" height="39">
<path fill-rule="evenodd" clip-rule="evenodd" d="M24.6516 46.9614C34.6224 46.827 42.6662 38.2226 42.6662 27.628C42.6662 17.0334 34.6224 8.42899 24.6516 8.29456V15.6667C30.7794 15.8003 35.7081 21.1044 35.7081 27.628C35.7081 34.1516 30.7794 39.4557 24.6516 39.5893V46.9614Z" fill="white"/>
</mask>
<g mask="url(#mask6_3372_441)">
<path d="M24.6515 46.9614H23.5811V48.11L24.6651 48.0954L24.6515 46.9614ZM24.6515 8.29456L24.6651 7.1606L23.5811 7.14603V8.29456H24.6515ZM24.6515 15.6667H23.5811V16.7776L24.6295 16.8005L24.6515 15.6667ZM24.6515 39.5893L24.6295 38.4555L23.5811 38.4785V39.5893H24.6515ZM24.6651 48.0954C35.2211 47.9531 43.7366 38.8441 43.7366 27.628H41.5956C41.5956 37.6012 34.0236 45.701 24.6379 45.8275L24.6651 48.0954ZM43.7366 27.628C43.7366 16.4119 35.2211 7.30292 24.6651 7.1606L24.6379 9.42847C34.0236 9.55503 41.5956 17.6548 41.5956 27.628H43.7366ZM23.5811 8.29456V15.6667H25.722V8.29456H23.5811ZM36.7785 27.628C36.7785 20.4859 31.3826 14.6792 24.6736 14.5329L24.6295 16.8005C30.176 16.9214 34.6375 21.7229 34.6375 27.628H36.7785ZM24.6736 40.7231C31.3826 40.5768 36.7785 34.7701 36.7785 27.628H34.6375C34.6375 33.5331 30.176 38.3346 24.6295 38.4555L24.6736 40.7231ZM23.5811 39.5893V46.9614H25.722V39.5893H23.5811Z" fill="black"/>
</g>
<path fill-rule="evenodd" clip-rule="evenodd" d="M25.1257 8.29456C15.1549 8.42899 7.11108 17.0334 7.11108 27.628C7.11108 38.2226 15.1549 46.827 25.1257 46.9614V39.5893C18.9979 39.4557 14.0692 34.1516 14.0692 27.628C14.0692 21.1044 18.9979 15.8003 25.1257 15.6667V8.29456Z" fill="#4CB249"/>
<mask id="mask7_3372_441" style="mask-type:luminance" maskUnits="userSpaceOnUse" x="7" y="8" width="19" height="39">
<path fill-rule="evenodd" clip-rule="evenodd" d="M25.1257 8.29456C15.1549 8.42899 7.11108 17.0334 7.11108 27.628C7.11108 38.2226 15.1549 46.827 25.1257 46.9614V39.5893C18.9979 39.4557 14.0692 34.1516 14.0692 27.628C14.0692 21.1044 18.9979 15.8003 25.1257 15.6667V8.29456Z" fill="white"/>
</mask>
<g mask="url(#mask7_3372_441)">
<path d="M25.1256 8.29456H26.1961V7.14603L25.112 7.1606L25.1256 8.29456ZM25.1256 46.9614L25.112 48.0954L26.1961 48.11V46.9614H25.1256ZM25.1256 39.5893H26.1961V38.4785L25.1476 38.4555L25.1256 39.5893ZM25.1256 15.6667L25.1476 16.8005L26.1961 16.7776V15.6667H25.1256ZM25.112 7.1606C14.5561 7.30298 6.04053 16.4119 6.04053 27.628H8.18148C8.18148 17.6548 15.7535 9.55503 25.1392 9.42847L25.112 7.1606ZM6.04053 27.628C6.04053 38.8441 14.5561 47.9531 25.112 48.0954L25.1392 45.8275C15.7535 45.701 8.18148 37.6012 8.18148 27.628H6.04053ZM26.1961 46.9614V39.5893H24.0551V46.9614H26.1961ZM12.9986 27.628C12.9986 34.7701 18.3945 40.5768 25.1036 40.7231L25.1476 38.4555C19.6011 38.3346 15.1396 33.5331 15.1396 27.628H12.9986ZM25.1036 14.5329C18.3945 14.6792 12.9986 20.486 12.9986 27.628H15.1396C15.1396 21.7229 19.6011 16.9215 25.1476 16.8005L25.1036 14.5329ZM26.1961 15.6667V8.29456H24.0551V15.6667H26.1961Z" fill="black"/>
</g>
<path d="M24.8886 34.0206C28.2881 34.0206 31.0439 31.1012 31.0439 27.5C31.0439 23.8988 28.2881 20.9794 24.8886 20.9794C21.4892 20.9794 18.7334 23.8988 18.7334 27.5C18.7334 31.1012 21.4892 34.0206 24.8886 34.0206Z" fill="#0094D9" stroke="black" stroke-width="0.5"/>
<path d="M6.48405 49.8969C8.84888 49.8969 10.766 47.866 10.766 45.3608C10.766 42.8556 8.84888 40.8247 6.48405 40.8247C4.11922 40.8247 2.20215 42.8556 2.20215 45.3608C2.20215 47.866 4.11922 49.8969 6.48405 49.8969Z" fill="#4CB249" stroke="black" stroke-width="0.5"/>
<path d="M43.4154 49.8969C45.7803 49.8969 47.6973 47.866 47.6973 45.3608C47.6973 42.8556 45.7803 40.8247 43.4154 40.8247C41.0506 40.8247 39.1335 42.8556 39.1335 45.3608C39.1335 47.866 41.0506 49.8969 43.4154 49.8969Z" fill="#0094D9" stroke="black" stroke-width="0.5"/>
<path d="M43.4155 47.2036C44.3763 47.2036 45.1551 46.3786 45.1551 45.3608C45.1551 44.3431 44.3763 43.518 43.4155 43.518C42.4548 43.518 41.676 44.3431 41.676 45.3608C41.676 46.3786 42.4548 47.2036 43.4155 47.2036Z" fill="#CEEFFF" stroke="black" stroke-width="0.5"/>
<path d="M160.61 36.2573C159.187 36.2573 157.902 35.9013 156.755 35.1892C155.609 34.4562 154.699 33.4824 154.027 32.2678C153.355 31.0322 153.019 29.6395 153.019 28.0898C153.019 26.5401 153.335 25.1579 153.968 23.9433C154.6 22.7286 155.46 21.7653 156.547 21.0532C157.655 20.3202 158.88 19.9538 160.224 19.9538C161.609 19.9538 162.824 20.3098 163.872 21.0218C164.939 21.7338 165.77 22.6972 166.363 23.9118C166.975 25.1265 167.282 26.5191 167.282 28.0898V28.938H156.31C156.429 29.7966 156.686 30.561 157.082 31.2311C157.496 31.8804 158.02 32.3934 158.653 32.7704C159.305 33.1474 160.007 33.3358 160.758 33.3358C161.45 33.3358 162.103 33.2102 162.715 32.9589C163.348 32.6866 163.872 32.3201 164.287 31.8594L166.481 33.9641C165.572 34.7599 164.643 35.3463 163.694 35.7232C162.765 36.0793 161.737 36.2573 160.61 36.2573ZM156.34 26.7391H164.109C163.99 25.9851 163.743 25.315 163.368 24.7286C163.012 24.1422 162.557 23.6815 162.004 23.3464C161.47 23.0113 160.877 22.8438 160.224 22.8438C159.572 22.8438 158.969 23.0113 158.416 23.3464C157.882 23.6605 157.437 24.1108 157.082 24.6971C156.726 25.2835 156.478 25.9642 156.34 26.7391Z" fill="black"/>
<path d="M148.059 36.2573C146.557 36.2573 145.42 35.8908 144.649 35.1578C143.878 34.4039 143.492 33.3044 143.492 31.8595V23.0323H140.527V20.2051H143.492V15.87L146.843 15.1161V20.2051H150.965V23.0323H146.843V31.0741C146.843 31.849 147.001 32.404 147.318 32.739C147.634 33.0531 148.168 33.2102 148.919 33.2102C149.255 33.2102 149.561 33.1893 149.838 33.1474C150.135 33.0845 150.501 32.9799 150.935 32.8332V35.8175C150.521 35.9641 150.046 36.0688 149.512 36.1316C148.998 36.2154 148.514 36.2573 148.059 36.2573Z" fill="black"/>
<path d="M130.292 36.2259C129.265 36.2259 128.345 36.0269 127.535 35.629C126.744 35.2101 126.121 34.6447 125.667 33.9327C125.232 33.1997 125.014 32.362 125.014 31.4196C125.014 30.4772 125.241 29.6605 125.696 28.9694C126.171 28.2783 126.833 27.7443 127.683 27.3673C128.533 26.9904 129.541 26.8019 130.708 26.8019C131.4 26.8019 132.082 26.8856 132.754 27.0532C133.426 27.1998 134.078 27.4511 134.711 27.8071V26.0479C134.711 25.0008 134.424 24.2155 133.851 23.692C133.297 23.1684 132.447 22.9066 131.301 22.9066C130.688 22.9066 130.026 23.0113 129.314 23.2208C128.622 23.4092 127.841 23.7129 126.971 24.1317L125.785 21.5559C127.96 20.4878 130.016 19.9538 131.953 19.9538C133.89 19.9538 135.383 20.4564 136.43 21.4616C137.498 22.4459 138.032 23.849 138.032 25.671V35.9431H134.711V34.3096C134.078 34.9588 133.396 35.4405 132.665 35.7546C131.933 36.0688 131.142 36.2259 130.292 36.2259ZM128.157 31.3568C128.157 32.0898 128.434 32.6657 128.988 33.0845C129.541 33.5034 130.283 33.7128 131.212 33.7128C131.884 33.7128 132.507 33.6081 133.08 33.3987C133.673 33.1683 134.217 32.8332 134.711 32.3934V29.8489C134.197 29.5976 133.663 29.4092 133.109 29.2835C132.556 29.1579 131.953 29.095 131.301 29.095C130.332 29.095 129.561 29.294 128.988 29.6919C128.434 30.0898 128.157 30.6447 128.157 31.3568Z" fill="black"/>
<path d="M115.841 36.2573C114.417 36.2573 113.133 35.9013 111.986 35.1892C110.839 34.4562 109.93 33.4824 109.258 32.2678C108.586 31.0322 108.25 29.6395 108.25 28.0898C108.25 26.5401 108.566 25.1579 109.199 23.9433C109.831 22.7286 110.691 21.7653 111.779 21.0532C112.885 20.3202 114.111 19.9538 115.456 19.9538C116.839 19.9538 118.055 20.3098 119.103 21.0218C120.17 21.7338 121.001 22.6972 121.594 23.9118C122.207 25.1265 122.513 26.5191 122.513 28.0898V28.938H111.541C111.66 29.7966 111.917 30.561 112.312 31.2311C112.728 31.8804 113.251 32.3934 113.884 32.7704C114.536 33.1474 115.238 33.3358 115.989 33.3358C116.681 33.3358 117.333 33.2102 117.946 32.9589C118.579 32.6866 119.103 32.3201 119.518 31.8594L121.712 33.9641C120.803 34.7599 119.874 35.3463 118.925 35.7232C117.996 36.0793 116.968 36.2573 115.841 36.2573ZM111.571 26.7391H119.34C119.222 25.9851 118.974 25.315 118.599 24.7286C118.243 24.1422 117.788 23.6815 117.235 23.3464C116.701 23.0113 116.108 22.8438 115.456 22.8438C114.803 22.8438 114.2 23.0113 113.647 23.3464C113.113 23.6605 112.668 24.1108 112.312 24.6971C111.956 25.2835 111.709 25.9642 111.571 26.7391Z" fill="black"/>
<path d="M97.9854 35.9432V20.2051H101.336V23.5977C101.771 22.404 102.335 21.493 103.026 20.8648C103.718 20.2365 104.519 19.9224 105.428 19.9224C105.705 19.9433 105.952 19.9747 106.17 20.0166C106.387 20.0375 106.625 20.1108 106.882 20.2365V23.3464C106.625 23.2208 106.328 23.1265 105.992 23.0637C105.676 23.0009 105.359 22.9695 105.043 22.9695C104.232 22.9695 103.501 23.1998 102.849 23.6605C102.216 24.1213 101.712 24.76 101.336 25.5768V35.9432H97.9854Z" fill="black"/>
<path d="M86.7274 36.2887C85.2249 36.2887 83.8216 36.0059 82.5166 35.4405C81.2123 34.8541 80.0658 34.0478 79.0772 33.0217C78.1084 31.9746 77.3473 30.7704 76.7939 29.4091C76.2602 28.027 75.9932 26.54 75.9932 24.9485C75.9932 23.3569 76.2602 21.8804 76.7939 20.5192C77.3473 19.137 78.1084 17.9328 79.0772 16.9067C80.0658 15.8596 81.2123 15.0533 82.5166 14.4878C83.8216 13.9014 85.2249 13.6082 86.7274 13.6082C87.7952 13.6082 88.8228 13.7653 89.8114 14.0794C90.8 14.3936 91.719 14.8438 92.5695 15.4302C93.4392 15.9956 94.1902 16.6972 94.8228 17.5349L92.4507 19.9851C91.719 19.0009 90.8594 18.2574 89.8708 17.7548C88.8822 17.2522 87.8348 17.0009 86.7274 17.0009C85.7195 17.0009 84.7802 17.1999 83.9104 17.5977C83.0604 17.9957 82.3095 18.5611 81.6571 19.2941C81.0244 20.0061 80.5298 20.8438 80.1744 21.8071C79.8185 22.7705 79.6403 23.8175 79.6403 24.9485C79.6403 26.0794 79.8185 27.1265 80.1744 28.0898C80.5298 29.0532 81.0244 29.9013 81.6571 30.6343C82.3095 31.3463 83.0604 31.9012 83.9104 32.2992C84.7802 32.697 85.7195 32.896 86.7274 32.896C87.8348 32.896 88.8822 32.6447 89.8708 32.1421C90.8594 31.6185 91.719 30.8751 92.4507 29.9118L94.8228 32.362C94.1902 33.1787 93.4392 33.8803 92.5695 34.4667C91.719 35.0531 90.8 35.5033 89.8114 35.8175C88.8228 36.1316 87.7952 36.2887 86.7274 36.2887Z" fill="black"/>
<path d="M66.4675 36.2573C65.0443 36.2573 63.7592 35.9013 62.6127 35.1892C61.4657 34.4562 60.5563 33.4824 59.8846 32.2678C59.2124 31.0322 58.8762 29.6395 58.8762 28.0898C58.8762 26.5401 59.1925 25.1579 59.8252 23.9433C60.4578 22.7286 61.3174 21.7653 62.405 21.0532C63.5119 20.3202 64.7376 19.9538 66.0821 19.9538C67.4657 19.9538 68.6812 20.3098 69.7292 21.0218C70.7965 21.7338 71.6272 22.6972 72.2202 23.9118C72.8331 25.1265 73.1392 26.5191 73.1392 28.0898V28.938H62.1679C62.2862 29.7966 62.5431 30.561 62.9387 31.2311C63.354 31.8804 63.8775 32.3934 64.5101 32.7704C65.1626 33.1474 65.8643 33.3358 66.6158 33.3358C67.3078 33.3358 67.9597 33.2102 68.5726 32.9589C69.2052 32.6866 69.7292 32.3201 70.1446 31.8594L72.3385 33.9641C71.4291 34.7599 70.5 35.3463 69.5515 35.7232C68.6224 36.0793 67.5942 36.2573 66.4675 36.2573ZM62.1974 26.7391H69.9663C69.8481 25.9851 69.6008 25.315 69.225 24.7286C68.8691 24.1422 68.4147 23.6815 67.8613 23.3464C67.3271 23.0113 66.734 22.8438 66.0821 22.8438C65.4297 22.8438 64.8265 23.0113 64.273 23.3464C63.7394 23.6605 63.2946 24.1108 62.9387 24.6971C62.5827 25.2835 62.336 25.9642 62.1974 26.7391Z" fill="black"/>
</g>
<defs>
<clipPath id="clip0_3372_441">
<rect width="167.529" height="55" fill="white"/>
</clipPath>
</defs>
</svg>
