<svg width="20" height="14" viewBox="0 0 20 14" fill="none" xmlns="http://www.w3.org/2000/svg">
<path d="M16.944 6.112C16.507 2.67 13.56 0 10 0C7.244 0 4.85 1.611 3.757 4.15C1.609 4.792 0 6.82 0 9C0 11.757 2.243 14 5 14H16C18.206 14 20 12.206 20 10C19.9985 9.10361 19.6966 8.23358 19.1427 7.52883C18.5888 6.82408 17.8147 6.32526 16.944 6.112ZM16 12H5C3.346 12 2 10.654 2 9C2 7.596 3.199 6.244 4.673 5.985L5.254 5.883L5.446 5.325C6.149 3.274 7.895 2 10 2C12.757 2 15 4.243 15 7V8H16C17.103 8 18 8.897 18 10C18 11.103 17.103 12 16 12Z" fill="black"/>
</svg>
