<svg width="312" height="97" viewBox="0 0 312 97" fill="none" xmlns="http://www.w3.org/2000/svg">
<mask id="path-1-inside-1_78_15" fill="white">
<path fill-rule="evenodd" clip-rule="evenodd" d="M20.9362 22.0203C22.0115 19.0458 21.254 15.5867 18.7556 13.344C15.4677 10.3926 10.4097 10.6654 7.45832 13.9533C4.50691 17.2412 4.7797 22.2991 8.06761 25.2506C10.566 27.4933 14.0865 27.8743 16.9282 26.4853L24.8025 33.5538L28.8105 29.0888L20.9362 22.0203Z"/>
</mask>
<path fill-rule="evenodd" clip-rule="evenodd" d="M20.9362 22.0203C22.0115 19.0458 21.254 15.5867 18.7556 13.344C15.4677 10.3926 10.4097 10.6654 7.45832 13.9533C4.50691 17.2412 4.7797 22.2991 8.06761 25.2506C10.566 27.4933 14.0865 27.8743 16.9282 26.4853L24.8025 33.5538L28.8105 29.0888L20.9362 22.0203Z" fill="#ED1C24"/>
<path d="M20.9362 22.0203L19.0553 21.3404L18.597 22.6082L19.6002 23.5087L20.9362 22.0203ZM16.9282 26.4853L18.2642 24.997L17.261 24.0965L16.0499 24.6885L16.9282 26.4853ZM24.8025 33.5538L23.4665 35.0421L24.9548 36.3781L26.2908 34.8898L24.8025 33.5538ZM28.8105 29.0888L30.2988 30.4248L31.6348 28.9365L30.1465 27.6005L28.8105 29.0888ZM17.4196 14.8323C19.2911 16.5123 19.8631 19.1058 19.0553 21.3404L22.817 22.7003C24.1598 18.9859 23.217 14.6612 20.0916 11.8557L17.4196 14.8323ZM8.94664 15.2893C11.1602 12.8233 14.9537 12.6187 17.4196 14.8323L20.0916 11.8557C15.9817 8.1664 9.65927 8.50738 5.97 12.6173L8.94664 15.2893ZM9.40361 23.7622C6.93767 21.5487 6.73309 17.7552 8.94664 15.2893L5.97 12.6173C2.28074 16.7272 2.62172 23.0496 6.7316 26.7389L9.40361 23.7622ZM16.0499 24.6885C13.9151 25.732 11.2751 25.4422 9.40361 23.7622L6.7316 26.7389C9.85698 29.5444 14.258 30.0166 17.8064 28.2821L16.0499 24.6885ZM26.1385 32.0654L18.2642 24.997L15.5922 27.9736L23.4665 35.0421L26.1385 32.0654ZM27.3222 27.7528L23.3142 32.2178L26.2908 34.8898L30.2988 30.4248L27.3222 27.7528ZM19.6002 23.5087L27.4745 30.5771L30.1465 27.6005L22.2722 20.532L19.6002 23.5087Z" fill="black" mask="url(#path-1-inside-1_78_15)"/>
<mask id="path-3-inside-2_78_15" fill="white">
<path fill-rule="evenodd" clip-rule="evenodd" d="M75.3747 25.6807C78.287 26.9146 81.7819 26.3446 84.1559 23.9706C87.2801 20.8464 87.2801 15.781 84.1559 12.6569C81.0317 9.53266 75.9664 9.53266 72.8422 12.6569C70.4682 15.0309 69.8982 18.5258 71.1321 21.438L63.6498 28.9203L67.8925 33.163L75.3747 25.6807Z"/>
</mask>
<path fill-rule="evenodd" clip-rule="evenodd" d="M75.3747 25.6807C78.287 26.9146 81.7819 26.3446 84.1559 23.9706C87.2801 20.8464 87.2801 15.781 84.1559 12.6569C81.0317 9.53266 75.9664 9.53266 72.8422 12.6569C70.4682 15.0309 69.8982 18.5258 71.1321 21.438L63.6498 28.9203L67.8925 33.163L75.3747 25.6807Z" fill="#0094D9"/>
<path d="M75.3747 25.6807L76.155 23.8392L74.9138 23.3133L73.9605 24.2665L75.3747 25.6807ZM71.1321 21.438L72.5463 22.8523L73.4995 21.899L72.9736 20.6578L71.1321 21.438ZM63.6498 28.9203L62.2356 27.5061L60.8214 28.9203L62.2356 30.3345L63.6498 28.9203ZM67.8925 33.163L66.4783 34.5772L67.8925 35.9914L69.3067 34.5772L67.8925 33.163ZM82.7417 22.5563C80.9634 24.3346 78.3429 24.7662 76.155 23.8392L74.5945 27.5222C78.2312 29.0631 82.6004 28.3545 85.5702 25.3848L82.7417 22.5563ZM82.7417 14.0711C85.0849 16.4142 85.0849 20.2132 82.7417 22.5563L85.5702 25.3848C89.4754 21.4795 89.4754 15.1479 85.5702 11.2426L82.7417 14.0711ZM74.2564 14.0711C76.5996 11.7279 80.3986 11.7279 82.7417 14.0711L85.5702 11.2426C81.6649 7.3374 75.3333 7.3374 71.428 11.2426L74.2564 14.0711ZM72.9736 20.6578C72.0466 18.4699 72.4782 15.8494 74.2564 14.0711L71.428 11.2426C68.4583 14.2124 67.7497 18.5816 69.2906 22.2183L72.9736 20.6578ZM65.0641 30.3345L72.5463 22.8523L69.7179 20.0238L62.2356 27.5061L65.0641 30.3345ZM69.3067 31.7487L65.0641 27.5061L62.2356 30.3345L66.4783 34.5772L69.3067 31.7487ZM73.9605 24.2665L66.4783 31.7487L69.3067 34.5772L76.789 27.0949L73.9605 24.2665Z" fill="black" mask="url(#path-3-inside-2_78_15)"/>
<mask id="path-5-inside-3_78_15" fill="white">
<path fill-rule="evenodd" clip-rule="evenodd" d="M38.0858 79.2857V88.5857C38.0858 93.2328 41.853 97 46.5 97C51.1471 97 54.9143 93.2328 54.9143 88.5857V79.2857H38.0858Z"/>
</mask>
<path fill-rule="evenodd" clip-rule="evenodd" d="M38.0858 79.2857V88.5857C38.0858 93.2328 41.853 97 46.5 97C51.1471 97 54.9143 93.2328 54.9143 88.5857V79.2857H38.0858Z" fill="#ED1C24"/>
<path d="M38.0858 79.2857V77.2857H36.0858V79.2857H38.0858ZM54.9143 79.2857H56.9143V77.2857H54.9143V79.2857ZM40.0858 88.5857V79.2857H36.0858V88.5857H40.0858ZM46.5 95C42.9575 95 40.0858 92.1282 40.0858 88.5857H36.0858C36.0858 94.3374 40.7484 99 46.5 99V95ZM52.9143 88.5857C52.9143 92.1282 50.0426 95 46.5 95V99C52.2517 99 56.9143 94.3374 56.9143 88.5857H52.9143ZM52.9143 79.2857V88.5857H56.9143V79.2857H52.9143ZM54.9143 77.2857H38.0858V81.2857H54.9143V77.2857Z" fill="black" mask="url(#path-5-inside-3_78_15)"/>
<mask id="path-7-inside-4_78_15" fill="white">
<path fill-rule="evenodd" clip-rule="evenodd" d="M54.8286 17.7143L54.8286 8.41429C54.8286 3.76721 51.0614 4.14404e-06 46.4143 4.5503e-06C41.7672 4.95656e-06 38 3.76721 38 8.41429L38 17.7143L54.8286 17.7143Z"/>
</mask>
<path fill-rule="evenodd" clip-rule="evenodd" d="M54.8286 17.7143L54.8286 8.41429C54.8286 3.76721 51.0614 4.14404e-06 46.4143 4.5503e-06C41.7672 4.95656e-06 38 3.76721 38 8.41429L38 17.7143L54.8286 17.7143Z" fill="#0094D9"/>
<path d="M54.8286 8.41429L56.8286 8.41429L54.8286 8.41429ZM54.8286 17.7143L54.8286 19.7143L56.8286 19.7143L56.8286 17.7143L54.8286 17.7143ZM38 8.41429L40 8.41429L38 8.41429ZM38 17.7143L36 17.7143L36 19.7143L38 19.7143L38 17.7143ZM52.8286 8.41429L52.8286 17.7143L56.8286 17.7143L56.8286 8.41429L52.8286 8.41429ZM46.4143 2C49.9568 2 52.8286 4.87178 52.8286 8.41429L56.8286 8.41429C56.8286 2.66264 52.1659 -2 46.4143 -2L46.4143 2ZM40 8.41429C40 4.87178 42.8718 2 46.4143 2L46.4143 -2C40.6626 -1.99999 36 2.66264 36 8.41429L40 8.41429ZM40 17.7143L40 8.41429L36 8.41429L36 17.7143L40 17.7143ZM38 19.7143L54.8286 19.7143L54.8286 15.7143L38 15.7143L38 19.7143Z" fill="black" mask="url(#path-7-inside-4_78_15)"/>
<mask id="path-9-inside-5_78_15" fill="white">
<path fill-rule="evenodd" clip-rule="evenodd" d="M17.7143 40.3143L8.41429 40.3143C3.7672 40.3143 -2.07202e-06 44.0815 -2.27515e-06 48.7286C-2.47828e-06 53.3756 3.7672 57.1428 8.41428 57.1428L17.7143 57.1428L17.7143 40.3143Z"/>
</mask>
<path fill-rule="evenodd" clip-rule="evenodd" d="M17.7143 40.3143L8.41429 40.3143C3.7672 40.3143 -2.07202e-06 44.0815 -2.27515e-06 48.7286C-2.47828e-06 53.3756 3.7672 57.1428 8.41428 57.1428L17.7143 57.1428L17.7143 40.3143Z" fill="#4CB249"/>
<path d="M8.41429 40.3143L8.41429 38.3143L8.41429 40.3143ZM17.7143 40.3143L19.7143 40.3143L19.7143 38.3143L17.7143 38.3143L17.7143 40.3143ZM8.41428 57.1428L8.41428 55.1428L8.41428 57.1428ZM17.7143 57.1428L17.7143 59.1428L19.7143 59.1428L19.7143 57.1428L17.7143 57.1428ZM8.41429 42.3143L17.7143 42.3143L17.7143 38.3143L8.41429 38.3143L8.41429 42.3143ZM2 48.7286C2 45.186 4.87177 42.3143 8.41429 42.3143L8.41429 38.3143C2.66263 38.3143 -2 42.9769 -2 48.7286L2 48.7286ZM8.41428 55.1428C4.87177 55.1428 2 52.2711 2 48.7286L-2 48.7286C-2 54.4802 2.66263 59.1428 8.41428 59.1428L8.41428 55.1428ZM17.7143 55.1428L8.41428 55.1428L8.41428 59.1428L17.7143 59.1428L17.7143 55.1428ZM19.7143 57.1428L19.7143 40.3143L15.7143 40.3143L15.7143 57.1428L19.7143 57.1428Z" fill="black" mask="url(#path-9-inside-5_78_15)"/>
<mask id="path-11-inside-6_78_15" fill="white">
<path fill-rule="evenodd" clip-rule="evenodd" d="M73.5143 57.1429L82.8143 57.1429C87.4614 57.1429 91.2286 53.3756 91.2286 48.7286C91.2286 44.0815 87.4614 40.3143 82.8143 40.3143L73.5143 40.3143L73.5143 57.1429Z"/>
</mask>
<path fill-rule="evenodd" clip-rule="evenodd" d="M73.5143 57.1429L82.8143 57.1429C87.4614 57.1429 91.2286 53.3756 91.2286 48.7286C91.2286 44.0815 87.4614 40.3143 82.8143 40.3143L73.5143 40.3143L73.5143 57.1429Z" fill="#0094D9"/>
<path d="M73.5143 57.1429L71.5143 57.1429L71.5143 59.1429L73.5143 59.1429L73.5143 57.1429ZM73.5143 40.3143L73.5143 38.3143L71.5143 38.3143L71.5143 40.3143L73.5143 40.3143ZM82.8143 55.1429L73.5143 55.1429L73.5143 59.1429L82.8143 59.1429L82.8143 55.1429ZM89.2286 48.7286C89.2286 52.2711 86.3569 55.1429 82.8143 55.1429L82.8143 59.1429C88.566 59.1429 93.2286 54.4802 93.2286 48.7286L89.2286 48.7286ZM82.8143 42.3143C86.3569 42.3143 89.2286 45.1861 89.2286 48.7286L93.2286 48.7286C93.2286 42.9769 88.566 38.3143 82.8143 38.3143L82.8143 42.3143ZM73.5143 42.3143L82.8143 42.3143L82.8143 38.3143L73.5143 38.3143L73.5143 42.3143ZM71.5143 40.3143L71.5143 57.1429L75.5143 57.1429L75.5143 40.3143L71.5143 40.3143Z" fill="black" mask="url(#path-11-inside-6_78_15)"/>
<mask id="path-13-inside-7_78_15" fill="white">
<path fill-rule="evenodd" clip-rule="evenodd" d="M46.0572 82.8229C64.686 82.5858 79.7143 67.4108 79.7143 48.7258C79.7143 30.0407 64.686 14.8657 46.0572 14.6286V27.6303C57.5059 27.866 66.7143 37.2205 66.7143 48.7258C66.7143 60.231 57.5059 69.5855 46.0572 69.8212V82.8229Z"/>
</mask>
<path fill-rule="evenodd" clip-rule="evenodd" d="M46.0572 82.8229C64.686 82.5858 79.7143 67.4108 79.7143 48.7258C79.7143 30.0407 64.686 14.8657 46.0572 14.6286V27.6303C57.5059 27.866 66.7143 37.2205 66.7143 48.7258C66.7143 60.231 57.5059 69.5855 46.0572 69.8212V82.8229Z" fill="#0094D9"/>
<path d="M46.0572 82.8229H44.0572V84.8486L46.0826 84.8228L46.0572 82.8229ZM46.0572 14.6286L46.0826 12.6287L44.0572 12.603V14.6286H46.0572ZM46.0572 27.6303H44.0572V29.5896L46.016 29.6299L46.0572 27.6303ZM46.0572 69.8212L46.016 67.8216L44.0572 67.862V69.8212H46.0572ZM46.0826 84.8228C65.8046 84.5718 81.7143 68.5069 81.7143 48.7258H77.7143C77.7143 66.3148 63.5674 80.5999 46.0317 80.8231L46.0826 84.8228ZM81.7143 48.7258C81.7143 28.9446 65.8046 12.8797 46.0826 12.6287L46.0317 16.6284C63.5674 16.8516 77.7143 31.1367 77.7143 48.7258H81.7143ZM44.0572 14.6286V27.6303H48.0572V14.6286H44.0572ZM68.7143 48.7258C68.7143 36.1297 58.6331 25.8888 46.0984 25.6307L46.016 29.6299C56.3787 29.8432 64.7143 38.3113 64.7143 48.7258H68.7143ZM46.0984 71.8208C58.6331 71.5627 68.7143 61.3218 68.7143 48.7258H64.7143C64.7143 59.1402 56.3787 67.6083 46.016 67.8216L46.0984 71.8208ZM44.0572 69.8212V82.8229H48.0572V69.8212H44.0572Z" fill="black" mask="url(#path-13-inside-7_78_15)"/>
<mask id="path-15-inside-8_78_15" fill="white">
<path fill-rule="evenodd" clip-rule="evenodd" d="M46.9429 14.6286C28.3141 14.8657 13.2857 30.0407 13.2857 48.7258C13.2857 67.4108 28.3141 82.5858 46.9429 82.8229L46.9429 69.8212C35.4941 69.5855 26.2857 60.231 26.2857 48.7258C26.2857 37.2205 35.4941 27.866 46.9429 27.6303L46.9429 14.6286Z"/>
</mask>
<path fill-rule="evenodd" clip-rule="evenodd" d="M46.9429 14.6286C28.3141 14.8657 13.2857 30.0407 13.2857 48.7258C13.2857 67.4108 28.3141 82.5858 46.9429 82.8229L46.9429 69.8212C35.4941 69.5855 26.2857 60.231 26.2857 48.7258C26.2857 37.2205 35.4941 27.866 46.9429 27.6303L46.9429 14.6286Z" fill="#4CB249"/>
<path d="M46.9429 14.6286L48.9429 14.6286L48.9429 12.603L46.9174 12.6287L46.9429 14.6286ZM46.9429 82.8229L46.9174 84.8228L48.9429 84.8486L48.9429 82.8229L46.9429 82.8229ZM46.9429 69.8212L48.9429 69.8212L48.9429 67.862L46.984 67.8216L46.9429 69.8212ZM46.9429 27.6303L46.984 29.6299L48.9429 29.5896L48.9429 27.6303L46.9429 27.6303ZM46.9174 12.6287C27.1955 12.8798 11.2857 28.9446 11.2857 48.7258L15.2857 48.7258C15.2857 31.1367 29.4327 16.8516 46.9683 16.6284L46.9174 12.6287ZM11.2857 48.7258C11.2857 68.5069 27.1955 84.5718 46.9174 84.8228L46.9683 80.8231C29.4327 80.5999 15.2857 66.3148 15.2857 48.7258L11.2857 48.7258ZM48.9429 82.8229L48.9429 69.8212L44.9429 69.8212L44.9429 82.8229L48.9429 82.8229ZM24.2857 48.7258C24.2857 61.3218 34.3669 71.5627 46.9017 71.8208L46.984 67.8216C36.6213 67.6083 28.2857 59.1402 28.2857 48.7258L24.2857 48.7258ZM46.9017 25.6307C34.3669 25.8888 24.2857 36.1298 24.2857 48.7258L28.2857 48.7258C28.2857 38.3113 36.6213 29.8433 46.984 29.6299L46.9017 25.6307ZM48.9429 27.6303L48.9429 14.6286L44.9429 14.6286L44.9429 27.6303L48.9429 27.6303Z" fill="black" mask="url(#path-15-inside-8_78_15)"/>
<circle cx="46.5" cy="48.5" r="11.5" fill="#0094D9" stroke="black" stroke-width="2"/>
<circle cx="12.1143" cy="80" r="8" fill="#4CB249" stroke="black" stroke-width="2"/>
<circle cx="80" cy="80" r="8" fill="#0094D9" stroke="black" stroke-width="2"/>
<path d="M299.072 68.9447C296.413 68.9447 294.012 68.3168 291.87 67.061C289.728 65.7683 288.029 64.0508 286.773 61.9086C285.517 59.7295 284.889 57.2734 284.889 54.5402C284.889 51.8071 285.48 49.3694 286.662 47.2272C287.844 45.085 289.451 43.386 291.482 42.1302C293.551 40.8375 295.841 40.1912 298.352 40.1912C300.938 40.1912 303.209 40.8191 305.167 42.0748C307.161 43.3306 308.712 45.0296 309.82 47.1718C310.965 49.314 311.538 51.7701 311.538 54.5402V56.0361H291.039C291.261 57.5504 291.741 58.8985 292.48 60.0804C293.255 61.2254 294.234 62.1302 295.416 62.7951C296.635 63.4599 297.946 63.7923 299.349 63.7923C300.642 63.7923 301.861 63.5707 303.006 63.1275C304.188 62.6473 305.167 62.001 305.942 61.1884L310.042 64.9003C308.343 66.3038 306.607 67.338 304.834 68.0028C303.098 68.6307 301.178 68.9447 299.072 68.9447ZM291.094 52.158H305.61C305.388 50.8283 304.926 49.6464 304.225 48.6122C303.56 47.5781 302.71 46.7655 301.676 46.1746C300.679 45.5836 299.571 45.2881 298.352 45.2881C297.133 45.2881 296.007 45.5836 294.973 46.1746C293.975 46.7286 293.144 47.5227 292.48 48.5568C291.815 49.591 291.353 50.7914 291.094 52.158Z" fill="white"/>
<path d="M275.623 68.9447C272.816 68.9447 270.693 68.2983 269.252 67.0056C267.812 65.676 267.091 63.7369 267.091 61.1885V45.6206H261.551V40.6344H267.091V32.989L273.352 31.6594V40.6344H281.053V45.6206H273.352V59.8034C273.352 61.17 273.647 62.1488 274.238 62.7397C274.829 63.2937 275.826 63.5707 277.23 63.5707C277.858 63.5707 278.43 63.5338 278.947 63.4599C279.501 63.3491 280.185 63.1645 280.997 62.9059V68.1691C280.222 68.4276 279.335 68.6123 278.338 68.7231C277.378 68.8708 276.473 68.9447 275.623 68.9447Z" fill="white"/>
<path d="M242.429 68.8893C240.509 68.8893 238.791 68.5384 237.277 67.8366C235.799 67.0979 234.636 66.1007 233.787 64.8449C232.974 63.5522 232.568 62.0749 232.568 60.4128C232.568 58.7507 232.992 57.3103 233.842 56.0915C234.728 54.8726 235.966 53.9308 237.554 53.266C239.142 52.6012 241.026 52.2688 243.205 52.2688C244.498 52.2688 245.772 52.4165 247.028 52.712C248.283 52.9705 249.502 53.4137 250.684 54.0416V50.9391C250.684 49.0924 250.149 47.7073 249.077 46.784C248.043 45.8606 246.455 45.3989 244.313 45.3989C243.168 45.3989 241.931 45.5836 240.601 45.953C239.308 46.2854 237.849 46.8209 236.224 47.5596L234.008 43.0167C238.071 41.133 241.912 40.1912 245.532 40.1912C249.151 40.1912 251.94 41.0776 253.897 42.8505C255.892 44.5864 256.889 47.061 256.889 50.2743V68.3906H250.684V65.5097C249.502 66.6547 248.228 67.5042 246.861 68.0582C245.495 68.6122 244.017 68.8893 242.429 68.8893ZM238.44 60.302C238.44 61.5947 238.957 62.6104 239.992 63.3491C241.026 64.0878 242.411 64.4571 244.147 64.4571C245.402 64.4571 246.566 64.2724 247.637 63.9031C248.745 63.4968 249.761 62.9059 250.684 62.1302V57.6427C249.724 57.1995 248.727 56.8671 247.692 56.6455C246.658 56.4239 245.532 56.3131 244.313 56.3131C242.503 56.3131 241.063 56.6639 239.992 57.3657C238.957 58.0675 238.44 59.0462 238.44 60.302Z" fill="white"/>
<path d="M215.429 68.9447C212.769 68.9447 210.369 68.3168 208.227 67.061C206.084 65.7683 204.385 64.0508 203.13 61.9086C201.874 59.7295 201.246 57.2734 201.246 54.5402C201.246 51.8071 201.837 49.3694 203.019 47.2272C204.201 45.085 205.807 43.386 207.839 42.1302C209.907 40.8375 212.197 40.1912 214.709 40.1912C217.294 40.1912 219.565 40.8191 221.523 42.0748C223.517 43.3306 225.069 45.0296 226.177 47.1718C227.322 49.314 227.894 51.7701 227.894 54.5402V56.0361H207.396C207.617 57.5504 208.097 58.8985 208.836 60.0804C209.612 61.2254 210.59 62.1302 211.772 62.7951C212.991 63.4599 214.302 63.7923 215.706 63.7923C216.998 63.7923 218.217 63.5707 219.362 63.1275C220.544 62.6473 221.523 62.001 222.299 61.1884L226.398 64.9003C224.699 66.3038 222.963 67.338 221.191 68.0028C219.455 68.6307 217.534 68.9447 215.429 68.9447ZM207.451 52.158H221.966C221.745 50.8283 221.283 49.6464 220.581 48.6122C219.916 47.5781 219.067 46.7655 218.033 46.1746C217.035 45.5836 215.927 45.2881 214.709 45.2881C213.49 45.2881 212.363 45.5836 211.329 46.1746C210.332 46.7286 209.501 47.5227 208.836 48.5568C208.171 49.591 207.709 50.7914 207.451 52.158Z" fill="white"/>
<path d="M182.069 68.3907V40.6344H188.33V46.6178C189.142 44.5125 190.195 42.9059 191.487 41.7979C192.78 40.6898 194.276 40.1358 195.975 40.1358C196.492 40.1727 196.954 40.2281 197.36 40.302C197.766 40.3389 198.21 40.4682 198.69 40.6898V46.1746C198.21 45.953 197.656 45.7868 197.028 45.676C196.437 45.5652 195.846 45.5098 195.255 45.5098C193.74 45.5098 192.374 45.916 191.155 46.7286C189.973 47.5412 189.031 48.6677 188.33 50.1081V68.3907H182.069Z" fill="white"/>
<path d="M161.035 69C158.228 69 155.606 68.5014 153.168 67.5042C150.731 66.47 148.589 65.048 146.742 63.2382C144.932 61.3915 143.51 59.2678 142.476 56.867C141.479 54.4294 140.98 51.807 140.98 49C140.98 46.193 141.479 43.5891 142.476 41.1884C143.51 38.7507 144.932 36.627 146.742 34.8172C148.589 32.9705 150.731 31.5485 153.168 30.5512C155.606 29.5171 158.228 29 161.035 29C163.03 29 164.95 29.277 166.797 29.831C168.644 30.385 170.361 31.1791 171.95 32.2133C173.575 33.2105 174.978 34.4478 176.16 35.9252L171.728 40.2465C170.361 38.5106 168.755 37.1994 166.908 36.313C165.061 35.4266 163.104 34.9834 161.035 34.9834C159.152 34.9834 157.397 35.3343 155.772 36.036C154.184 36.7378 152.781 37.735 151.562 39.0277C150.38 40.2835 149.456 41.7608 148.792 43.4598C148.127 45.1588 147.794 47.0055 147.794 49C147.794 50.9945 148.127 52.8412 148.792 54.5402C149.456 56.2392 150.38 57.735 151.562 59.0277C152.781 60.2835 154.184 61.2622 155.772 61.964C157.397 62.6657 159.152 63.0166 161.035 63.0166C163.104 63.0166 165.061 62.5734 166.908 61.687C168.755 60.7636 170.361 59.4524 171.728 57.7535L176.16 62.0748C174.978 63.5152 173.575 64.7525 171.95 65.7867C170.361 66.8209 168.644 67.615 166.797 68.169C164.95 68.723 163.03 69 161.035 69Z" fill="white"/>
<path d="M123.183 68.9447C120.524 68.9447 118.123 68.3168 115.981 67.061C113.838 65.7683 112.139 64.0508 110.884 61.9086C109.628 59.7295 109 57.2734 109 54.5402C109 51.8071 109.591 49.3694 110.773 47.2272C111.955 45.085 113.561 43.386 115.593 42.1302C117.661 40.8375 119.951 40.1912 122.463 40.1912C125.048 40.1912 127.319 40.8191 129.277 42.0748C131.271 43.3306 132.823 45.0296 133.931 47.1718C135.076 49.314 135.648 51.7701 135.648 54.5402V56.0361H115.15C115.371 57.5504 115.851 58.8985 116.59 60.0804C117.366 61.2254 118.344 62.1302 119.526 62.7951C120.745 63.4599 122.056 63.7923 123.46 63.7923C124.753 63.7923 125.971 63.5707 127.116 63.1275C128.298 62.6473 129.277 62.001 130.053 61.1884L134.152 64.9003C132.453 66.3038 130.717 67.338 128.945 68.0028C127.209 68.6307 125.288 68.9447 123.183 68.9447ZM115.205 52.158H129.72C129.499 50.8283 129.037 49.6464 128.335 48.6122C127.67 47.5781 126.821 46.7655 125.787 46.1746C124.789 45.5836 123.681 45.2881 122.463 45.2881C121.244 45.2881 120.117 45.5836 119.083 46.1746C118.086 46.7286 117.255 47.5227 116.59 48.5568C115.925 49.591 115.464 50.7914 115.205 52.158Z" fill="white"/>
</svg>
